<svg xmlns="http://www.w3.org/2000/svg" width="156" height="25" fill="none" viewBox="0 0 156 25.354"><path fill="var(--fill-0, #232527)" d="M13.486 2.503V0H1.283v19.44h2.663v-8.433h8.966V8.505H3.946V2.503zm15.192 9.572c0 3.412-1.482 5.141-4.416 5.141-2.933 0-4.44-1.73-4.44-5.14V0h-2.661v12.107c0 4.942 2.518 7.668 7.101 7.668s7.07-2.726 7.07-7.668V0H28.67v12.075zm5.715-9.572h6.568V19.44h2.654V2.503h6.584V0H34.393zm30.376 9.572c0 3.412-1.483 5.141-4.416 5.141s-4.44-1.73-4.44-5.14V0h-2.662v12.107c0 4.942 2.52 7.668 7.102 7.668s7.07-2.726 7.07-7.668V0h-2.662v12.075zm17.336-1.92c1.745-.813 2.822-2.567 2.822-4.743 0-2.47-1.18-5.412-6.815-5.412h-5.906v19.44h2.662v-8.146h3.323c1.858 0 2.567.574 3.3 2.678l1.873 5.46h2.886l-2.184-6.041c-.574-1.626-1.068-2.623-1.961-3.236m-.725-2.408c-.686.694-1.754 1.045-3.173 1.045h-3.355v-6.29h3.22c4.129 0 4.129 2.209 4.129 2.942.008.948-.28 1.745-.83 2.303zm11.047 2.973h9.309V8.218h-9.31V2.503h9.804V0H89.772v19.44h12.769v-2.51H92.427zM14.714 22.756H0v2.598h14.714zM108.503.024h-1.769v19.392h12.035v-1.61h-10.266zm21.122 0-7.683 19.392h1.905l2.423-6.265h9.094l2.423 6.265h1.905L132.04.024h-2.423zm-2.726 11.493.79-2.016c1.091-2.75 2.04-5.26 3.108-8.034h.056c1.06 2.781 2.04 5.284 3.108 8.034l.766 2.016zm25.53-2.017v-.055c2.041-.733 3.157-2.367 3.157-4.52 0-2.916-2.017-4.901-6.265-4.901h-6.018v19.392h6.456c3.953 0 6.241-2.096 6.241-5.34 0-2.32-1.419-4.033-3.571-4.575m-7.349-7.93h4.089c3.268 0 4.631 1.34 4.631 3.595 0 2.096-1.307 3.57-4.71 3.57h-4.002V1.57zm4.464 16.292h-4.464V10.29h4.002c3.594 0 5.069 1.475 5.069 3.762 0 2.479-1.554 3.81-4.607 3.81"/></svg>