<svg xmlns="http://www.w3.org/2000/svg" width="204" height="34" fill="none" viewBox="0 0 204 33.156"><path fill="var(--fill-0, white)" d="M17.636 3.273V0H1.678v25.422H5.16V14.394h11.726v-3.273H5.16V3.273zM37.502 15.79c0 4.462-1.939 6.724-5.774 6.724s-5.806-2.262-5.806-6.723V0h-3.481v15.833c0 6.462 3.294 10.027 9.287 10.027s9.245-3.565 9.245-10.027V0h-3.481v15.79zm7.473-12.517h8.589v22.149h3.47V3.272h8.61V0H44.975zM84.698 15.79c0 4.462-1.939 6.724-5.775 6.724-3.835 0-5.805-2.262-5.805-6.723V0h-3.481v15.833c0 6.462 3.293 10.027 9.286 10.027 5.994 0 9.246-3.565 9.246-10.027V0h-3.482v15.79zm22.67-2.511c2.283-1.063 3.69-3.356 3.69-6.202 0-3.23-1.543-7.077-8.912-7.077h-7.724v25.422h3.482V14.77h4.346c2.429 0 3.356.75 4.315 3.502l2.45 7.14h3.773l-2.856-7.901c-.75-2.127-1.397-3.43-2.564-4.232m-.949-3.148c-.896.907-2.293 1.366-4.148 1.366h-4.388V3.273h4.211c5.399 0 5.399 2.887 5.399 3.846.01 1.24-.365 2.283-1.084 3.012zm14.447 3.888h12.174v-3.273h-12.174V3.273h12.82V0h-16.291v25.422h16.697v-3.283h-13.226zM19.241 29.758H0v3.398h19.241zM141.889.031h-2.314v25.36h15.739v-2.106h-13.425zm27.621 0-10.048 25.36h2.491l3.169-8.193h11.893l3.168 8.192h2.491L172.668.031H169.5zm-3.565 15.03 1.032-2.637c1.428-3.596 2.669-6.879 4.065-10.506h.073c1.387 3.637 2.669 6.91 4.065 10.506l1.001 2.637zm33.386-2.637v-.073c2.668-.959 4.127-3.095 4.127-5.91 0-3.814-2.637-6.41-8.192-6.41h-7.87v25.36h8.443c5.17 0 8.161-2.742 8.161-6.984 0-3.033-1.855-5.274-4.669-5.983m-9.611-10.37h5.347c4.274 0 6.056 1.75 6.056 4.7 0 2.741-1.709 4.67-6.16 4.67h-5.232v-9.37zm5.837 21.304h-5.837v-9.902h5.233c4.701 0 6.629 1.928 6.629 4.92 0 3.241-2.033 4.982-6.025 4.982"/></svg>