<svg xmlns="http://www.w3.org/2000/svg" fill="none" viewBox="0 0 86.316 80"><g fill="#fff"><path d="M20.375 70.558c-.784-.95-1.05-2.037-.734-3.223.133-.497.03-.832-.286-1.21-2.9-3.498-6.3-6.426-10.09-8.92-.38-.25-.748-.422-1.242-.415-.697.013-1.212-.557-1.258-1.222-.043-.613.408-1.22 1.019-1.372.604-.152 1.291.142 1.504.775.272.809.846 1.372 1.387 1.971 2.802 3.081 5.942 5.765 9.457 8.01.475.306.833.349 1.364.057 1.723-.944 3.831-.328 4.837 1.342.996 1.65.514 3.77-1.109 4.903-1.523 1.063-3.638.759-4.853-.696zm3.15 8.684c-1.069.898-2.513 1.007-3.674.278-1.199-.755-1.806-2.146-1.328-3.485.259-.719.026-1.146-.362-1.656-3.751-4.933-7.894-9.521-12.292-13.881-.973-.964-1.998-1.878-3-2.813-.392-.364-.794-.62-1.388-.636-.916-.026-1.534-.815-1.477-1.703A1.63 1.63 0 0 1 1.6 53.81c.893-.023 1.65.616 1.663 1.53.007.527.216.898.505 1.283 2.516 3.366 5.195 6.6 8.1 9.634 2.416 2.524 4.962 4.93 7.438 7.397.385.385.724.454 1.258.269 1.45-.504 2.988.159 3.718 1.514.68 1.262.358 2.869-.757 3.81zM30.192 23.5c1.132-.914 2.324-.931 3.207-.248.916.708 1.251 1.918.68 2.921-.318.56-.275 1-.06 1.558 2.105 5.426 4.522 10.717 7.12 15.921a188 188 0 0 0 6.444 11.87c.265.448.56.756 1.118.895 1.04.262 1.564 1.298 1.275 2.299-.285.994-1.318 1.584-2.304 1.322-1.032-.275-1.656-1.309-1.324-2.352.153-.474.093-.855-.07-1.286-1.603-4.18-3.402-8.275-5.337-12.314-2.576-5.373-5.302-10.667-8.372-15.78-.276-.456-.568-.741-1.142-.84-1.012-.17-1.616-.882-1.829-1.856-.202-.92.113-1.706.598-2.11zM56.28 56.516c-.947.805-2.175.838-3.108.149-.863-.636-1.225-1.882-.7-2.859.282-.523.206-.924.016-1.415-2.675-6.864-5.802-13.516-9.231-20.033-1.444-2.746-3.01-5.43-4.511-8.146a1.36 1.36 0 0 0-.863-.702c-1.099-.342-1.617-1.461-1.219-2.475a1.917 1.917 0 0 1 2.42-1.103c1.036.377 1.537 1.48 1.066 2.537-.193.438-.163.776 0 1.186 1.992 5.112 4.262 10.101 6.695 15.014 2.175 4.387 4.452 8.717 6.955 12.927.295.497.594.766 1.214.822 1.016.093 1.68.752 1.946 1.726.255.944-.024 1.766-.678 2.365zM28.857 33.629c.594 1.361 1.148 2.703 1.756 4.018 2.655 5.768 5.616 11.377 8.949 16.79.644 1.047 1.314 2.077 1.978 3.114.272.427.6.755 1.096.98.89.408 1.165 1.471.677 2.28a1.65 1.65 0 0 1-1.975.696c-.727-.269-1.252-1.05-1.036-1.803.176-.606.01-1.086-.206-1.603a131 131 0 0 0-6.841-14.103c-1.766-3.14-3.668-6.205-5.497-9.316-.25-.424-.555-.62-1.046-.712a2.69 2.69 0 0 1-2.197-2.521 2.76 2.76 0 0 1 1.905-2.767c1.142-.37 2.42.073 3.107 1.08.71 1.044.634 2.343-.203 3.34-.126.149-.262.288-.474.52zm28.431 16.826c-.774-.977-.99-1.974-.438-2.978.305-.56.209-.987.01-1.491-1.766-4.476-3.775-8.845-5.959-13.132-1.829-3.588-3.754-7.123-5.862-10.558-.239-.392-.498-.68-.97-.852-.862-.315-1.234-1.239-.932-2.06a1.67 1.67 0 0 1 2.058-.998c.846.279 1.341 1.137 1.042 2.008-.166.48-.076.855.09 1.279 1.74 4.459 3.744 8.795 5.922 13.056 1.806 3.538 3.704 7.023 5.779 10.412.329.537.624.792 1.295.756 1.195-.067 2.237.748 2.609 1.871a2.75 2.75 0 0 1-.93 3.012 2.715 2.715 0 0 1-3.15.142c-.232-.149-.428-.354-.564-.467m3.4-16.165c-1.002-1.205-1.145-2.875-.292-4.22.286-.447.339-.832.193-1.325-.784-2.684-2.022-5.149-3.579-7.46-.242-.362-.557-.59-.959-.773-.468-.212-.677-.712-.6-1.19.082-.536.457-.907.998-.99.485-.076.996.136 1.195.593.117.262.173.613.1.881-.103.378-.073.706.04 1.06.866 2.658 2.16 5.09 3.794 7.355.279.385.56.332.942.235 1.498-.38 2.779.004 3.785 1.18 1.31 1.537 1.105 3.81-.435 5.112a3.65 3.65 0 0 1-5.188-.454z"/><path d="M60.744 37.613c.269-.037.488-.07.707-.093 1.48-.16 2.815.66 3.32 2.03.504 1.366 0 2.866-1.242 3.678-1.195.785-2.782.656-3.808-.308-1.105-1.04-1.36-2.604-.554-3.9.276-.443.252-.794.09-1.245-1.454-4.032-3.283-7.891-5.391-11.622-.797-1.41-1.656-2.786-2.526-4.15-.213-.339-.548-.617-.876-.855-.571-.415-.82-1.07-.561-1.677a1.34 1.34 0 0 1 1.596-.758c.654.195 1.072.778.92 1.487-.103.484.033.878.182 1.296 1.45 4.064 3.303 7.944 5.418 11.7.644 1.144 1.334 2.263 2.018 3.383.216.355.471.686.71 1.03zM25.358 50.807c.624 1.858 1.474 3.588 2.444 5.26.474.822 1.005 1.614 1.54 2.402.262.388.554.72 1.065.885.648.209.887.924.638 1.52a1.19 1.19 0 0 1-1.381.696 1.16 1.16 0 0 1-.85-1.424c.106-.394.136-.732-.02-1.126a34.2 34.2 0 0 0-3.977-7.272c-.096-.136-.212-.259-.372-.448-1.214.378-2.403.325-3.485-.467a3.53 3.53 0 0 1-1.348-1.968c-.444-1.616.342-3.332 1.863-4.091 1.523-.759 3.369-.361 4.404.947 1.182 1.495 1.02 3.24-.517 5.092z"/><path d="M26.732 41.835c.614 1.457 1.191 2.941 1.852 4.39a84.6 84.6 0 0 0 6.48 11.647c.245.371.527.68.969.885.69.318.92 1.06.637 1.7a1.35 1.35 0 0 1-1.534.751c-.683-.165-1.125-.791-.965-1.533.096-.451.003-.819-.153-1.21a81 81 0 0 0-6.413-12.625c-.561-.901-1.179-1.77-1.73-2.68-.315-.524-.687-.739-1.33-.775-2.288-.13-3.629-2.558-2.563-4.536.85-1.573 2.824-2.14 4.341-1.242 1.547.914 2.019 2.859 1.053 4.373-.163.258-.365.49-.644.858zm-9.28 14.762c-.757-.583-1.607-.845-2.51-.894-.239-.013-.504.169-.736.298-.591.331-1.252.182-1.61-.381a1.16 1.16 0 0 1 .298-1.567c.528-.39 1.325-.338 1.617.255.495 1 1.4 1.193 2.32 1.415.292.07.601.076.87.109 1.693-2.206 3.668-2.81 5.616-1.756 1.71.925 2.503 2.969 1.873 4.82-.621 1.823-2.55 2.972-4.452 2.65-1.175-.198-2.058-.827-2.718-1.795-.654-.957-.717-2.027-.565-3.147zm51.413-33.192c.757.583 1.607.845 2.51.895.238.013.504-.17.736-.298.591-.332 1.252-.182 1.61.38a1.16 1.16 0 0 1-.299 1.568c-.527.39-1.324.338-1.616-.255-.495-1-1.4-1.193-2.32-1.415-.293-.07-.601-.076-.87-.11-1.693 2.207-3.668 2.81-5.617 1.756-1.71-.924-2.502-2.968-1.872-4.82.621-1.822 2.55-2.971 4.452-2.65 1.175.199 2.058.828 2.718 1.796.654.957.717 2.027.565 3.147z"/><path d="M65.94 9.442c.784.95 1.05 2.037.734 3.223-.132.497-.03.832.286 1.21 2.901 3.498 6.3 6.427 10.091 8.921.378.249.747.42 1.242.414.697-.013 1.211.557 1.258 1.223.043.613-.409 1.219-1.02 1.371-.604.153-1.29-.142-1.503-.775-.272-.808-.847-1.372-1.388-1.971-2.801-3.081-5.942-5.764-9.457-8.01-.475-.305-.833-.348-1.364-.057-1.723.944-3.83.328-4.837-1.342-.995-1.65-.514-3.77 1.11-4.903 1.523-1.063 3.637-.758 4.852.696zM62.79.758C63.86-.14 65.305-.25 66.466.479c1.199.756 1.806 2.147 1.328 3.486-.259.719-.027 1.146.362 1.656 3.75 4.933 7.894 9.521 12.292 13.881.972.964 1.998 1.879 3 2.813.392.364.794.62 1.388.636.916.026 1.534.815 1.477 1.703a1.63 1.63 0 0 1-1.596 1.537c-.893.023-1.65-.616-1.663-1.53-.007-.527-.216-.899-.505-1.283-2.516-3.366-5.195-6.6-8.1-9.634-2.416-2.524-4.962-4.93-7.438-7.397-.385-.385-.724-.454-1.258-.269-1.451.504-2.988-.159-3.718-1.514-.68-1.262-.359-2.869.757-3.81z"/></g></svg>