<svg viewBox="0 0 16 16" fill="none" xmlns="http://www.w3.org/2000/svg">
<path fill-rule="evenodd" clip-rule="evenodd" d="M8 0C3.58172 0 0 3.58172 0 8C0 12.4183 3.58172 16 8 16C12.4183 16 16 12.4183 16 8C16 3.58172 12.4183 0 8 0ZM8 4C8.41421 4 8.75 4.33579 8.75 4.75V8.25C8.75 8.66421 8.41421 9 8 9C7.58579 9 7.25 8.66421 7.25 8.25V4.75C7.25 4.33579 7.58579 4 8 4ZM8 10.5C7.44772 10.5 7 10.9477 7 11.5C7 12.0523 7.44772 12.5 8 12.5C8.55228 12.5 9 12.0523 9 11.5C9 10.9477 8.55228 10.5 8 10.5Z" fill="#C9D3DC"/>
</svg>
