<svg viewBox="0 0 41.6801 41.6802" fill="none" xmlns="http://www.w3.org/2000/svg">
<path d="M16.6647 34.9255C16.7038 34.9431 16.7428 34.9528 16.7839 34.9528C16.8738 34.9528 16.9597 34.9098 17.0125 34.8317L27.3094 19.4528C27.3641 19.3727 27.3699 19.2692 27.3289 19.1832C27.2879 19.0953 27.2019 19.0366 27.1062 19.0288L21.5732 18.5169L25.1566 7.08501C25.1977 6.9541 25.1371 6.81537 25.014 6.7548C24.8909 6.69619 24.7444 6.73526 24.6682 6.84859L14.3713 22.2274C14.3165 22.3076 14.3107 22.4111 14.3517 22.4971C14.3928 22.585 14.4787 22.6436 14.5745 22.6514L20.1074 23.1633L16.524 34.5953C16.481 34.7262 16.5435 34.8668 16.6647 34.9255ZM20.7307 23.005C20.7561 22.9269 20.7424 22.8409 20.6975 22.7706C20.6526 22.7022 20.5764 22.6572 20.4943 22.6494L15.0822 22.1473L24.064 8.73209L20.9476 18.6713C20.9222 18.7495 20.9358 18.8355 20.9808 18.9058C21.0257 18.9742 21.1019 19.0191 21.184 19.0269L26.5961 19.5291L17.6143 32.9443L20.7307 23.005ZM0.547088 20.8401C0.547088 25.5469 2.19614 30.1345 5.18971 33.7572C5.28545 33.8744 5.26982 34.0464 5.15259 34.144C5.10179 34.187 5.03926 34.2066 4.97869 34.2066C4.90054 34.2066 4.82043 34.1734 4.76767 34.1069C1.69228 30.3867 0 25.6741 0 20.8401C0 15.2734 2.16684 10.0389 6.10402 6.10402C10.0391 2.16696 15.2734 0 20.8401 0C25.469 0 29.9962 1.55723 33.638 4.39045L33.5774 2.64565C33.5716 2.4952 33.6907 2.3682 33.8412 2.36233C33.9956 2.36038 34.1186 2.47566 34.1245 2.62611L34.2066 4.9688C34.2105 5.10557 34.1147 5.22476 33.9819 5.24821L31.6744 5.66438C31.5259 5.68978 31.3832 5.59209 31.3559 5.44359C31.3285 5.2951 31.4282 5.15247 31.5767 5.12511L33.2902 4.8164C29.7478 2.06142 25.3417 0.547253 20.84 0.547253C9.65024 0.547253 0.547144 9.65035 0.547144 20.8401L0.547088 20.8401ZM41.6801 20.8401C41.6801 26.4068 39.5132 31.6414 35.576 35.5762C31.6409 39.5133 26.4067 41.6802 20.8399 41.6802C16.2111 41.6802 11.6839 40.123 8.04207 37.2898L8.10263 39.0346C8.1085 39.185 7.98931 39.312 7.83886 39.3179C7.68451 39.3238 7.56141 39.2046 7.55555 39.0541L7.47348 36.7114C7.46958 36.5747 7.56531 36.4555 7.69818 36.432L10.0057 36.0159C10.1542 35.9885 10.2968 36.0882 10.3242 36.2366C10.3515 36.3851 10.2519 36.5278 10.1034 36.5551L8.38985 36.8638C11.9322 39.6188 16.3383 41.133 20.8401 41.133C32.0298 41.133 41.1329 32.0299 41.1329 20.8402C41.1329 16.1333 39.4839 11.5457 36.4903 7.92308C36.3945 7.80585 36.4102 7.6339 36.5274 7.53621C36.6446 7.44047 36.8166 7.4561 36.9143 7.57333C39.9877 11.2935 41.6799 16.0041 41.6799 20.8401L41.6801 20.8401Z" fill="white"/>
</svg>
