<svg preserveAspectRatio="none" width="100%" height="100%" overflow="visible" style="display: block;" viewBox="0 0 15.2778 15.2778" fill="none" xmlns="http://www.w3.org/2000/svg">
<path id="Solid" fill-rule="evenodd" clip-rule="evenodd" d="M7.63889 0C3.42005 0 0 3.42005 0 7.63889C0 11.8577 3.42005 15.2778 7.63889 15.2778C11.8577 15.2778 15.2778 11.8577 15.2778 7.63889C15.2778 3.42005 11.8577 0 7.63889 0ZM11.2549 6.0466C11.5261 5.7754 11.5261 5.33571 11.2549 5.06451C10.9837 4.79331 10.544 4.79331 10.2728 5.06451L6.59722 8.74013L5.00494 7.14784C4.73374 6.87665 4.29404 6.87665 4.02284 7.14784C3.75165 7.41904 3.75165 7.85874 4.02284 8.12994L6.10618 10.2133C6.37737 10.4845 6.81707 10.4845 7.08827 10.2133L11.2549 6.0466Z" fill="var(--fill-0, #1D4ED8)"/>
</svg>
