<svg width="20" height="20" viewBox="0 0 20 20" fill="none" xmlns="http://www.w3.org/2000/svg">
<path d="M3.25 11.5833C2.47343 11.5833 2.08515 11.5833 1.77886 11.4565C1.37048 11.2873 1.04603 10.9629 0.876869 10.5545C0.750001 10.2482 0.750001 9.8599 0.750001 9.08333V3.41667C0.750001 2.48325 0.750001 2.01654 0.931657 1.66002C1.09145 1.34641 1.34641 1.09145 1.66002 0.931657C2.01654 0.750001 2.48325 0.750001 3.41667 0.750001H9.08333C9.8599 0.750001 10.2482 0.750001 10.5545 0.876869C10.9629 1.04603 11.2873 1.37048 11.4565 1.77886C11.5833 2.08515 11.5833 2.47343 11.5833 3.25M9.25 17.4167H14.75C15.6834 17.4167 16.1501 17.4167 16.5067 17.235C16.8203 17.0752 17.0752 16.8203 17.235 16.5067C17.4167 16.1501 17.4167 15.6834 17.4167 14.75V9.25C17.4167 8.31658 17.4167 7.84987 17.235 7.49335C17.0752 7.17975 16.8203 6.92478 16.5067 6.76499C16.1501 6.58333 15.6834 6.58333 14.75 6.58333H9.25C8.31658 6.58333 7.84987 6.58333 7.49335 6.76499C7.17975 6.92478 6.92478 7.17975 6.76499 7.49335C6.58333 7.84987 6.58333 8.31658 6.58333 9.25V14.75C6.58333 15.6834 6.58333 16.1501 6.76499 16.5067C6.92478 16.8203 7.17975 17.0752 7.49335 17.235C7.84987 17.4167 8.31658 17.4167 9.25 17.4167Z" stroke="#262525" stroke-width="1.5" stroke-linecap="round" stroke-linejoin="round"/>
</svg>
