<svg preserveAspectRatio="none" width="100%" height="100%" overflow="visible" style="display: block;" viewBox="0 0 21.0002 20.1146" fill="none" xmlns="http://www.w3.org/2000/svg">
<path id="Icon" d="M12.244 1.2482L19.7721 6.14142C20.0381 6.31432 20.1711 6.40077 20.2674 6.51609C20.3527 6.61817 20.4168 6.73624 20.4559 6.86339C20.5001 7.00703 20.5001 7.16566 20.5001 7.48293V14.8146C20.5001 16.4948 20.5001 17.3349 20.1731 17.9766C19.8855 18.5411 19.4265 19 18.8621 19.2876C18.2203 19.6146 17.3802 19.6146 15.7001 19.6146H5.30008C3.61993 19.6146 2.77985 19.6146 2.13811 19.2876C1.57363 19 1.11469 18.5411 0.827065 17.9766C0.500085 17.3349 0.500085 16.4948 0.500085 14.8146V7.48293C0.500085 7.16566 0.500085 7.00703 0.544255 6.86339C0.583355 6.73624 0.647431 6.61817 0.732733 6.51609C0.829096 6.40077 0.962098 6.31432 1.2281 6.14142L8.75612 1.2482M12.244 1.2482C11.6128 0.837895 11.2972 0.632741 10.9571 0.552918C10.6565 0.482361 10.3437 0.482361 10.0431 0.552918C9.70299 0.632741 9.38737 0.837896 8.75612 1.2482M12.244 1.2482L19.4682 5.94387C19.8121 6.16742 19.984 6.2792 20.0436 6.42095C20.0956 6.54482 20.0956 6.68443 20.0436 6.80831C19.984 6.95006 19.8121 7.06183 19.4682 7.28538L12.244 11.9811C11.6128 12.3914 11.2972 12.5965 10.9571 12.6763C10.6565 12.7469 10.3437 12.7469 10.0431 12.6763C9.70299 12.5965 9.38737 12.3914 8.75612 11.9811L1.53202 7.28538C1.18809 7.06183 1.01613 6.95006 0.956572 6.80831C0.904524 6.68443 0.904524 6.54482 0.956572 6.42095C1.01613 6.2792 1.18809 6.16742 1.53202 5.94387L8.75612 1.2482" stroke="var(--stroke-0, #B3B3B3)" stroke-linecap="round" stroke-linejoin="round"/>
</svg>
