<svg width="35" height="24" viewBox="0 0 35 24" fill="none" xmlns="http://www.w3.org/2000/svg">
<path d="M31 0.500122H4C2.067 0.500122 0.5 2.06713 0.5 4.00012V20.0001C0.5 21.9331 2.067 23.5001 4 23.5001H31C32.933 23.5001 34.5 21.9331 34.5 20.0001V4.00012C34.5 2.06713 32.933 0.500122 31 0.500122Z" fill="#AFF4DE" stroke="#282829" stroke-width="0.98263"/>
<path d="M25.8251 7.35562L20.4889 4.31435C18.9224 3.42163 16.9646 4.5372 16.9646 6.32395V6.63594C16.9646 6.91778 17.117 7.17865 17.3639 7.31891L18.3716 7.89309C18.6674 8.0622 19.0364 7.85114 19.0364 7.51424V6.73819C19.0364 6.35017 19.4615 6.10765 19.8013 6.30167L24.4231 8.93656C24.7634 9.13057 24.7634 9.61561 24.4231 9.80833L19.8013 12.4432C19.4615 12.6372 19.0364 12.3947 19.0364 12.0067V11.5937C19.0364 9.80699 17.0787 8.69012 15.5111 9.58412L10.1749 12.6254C8.60837 13.5182 8.60837 15.7519 10.1749 16.6446L15.5111 19.6859C17.0771 20.5786 19.0364 19.463 19.0364 17.6763V17.3643C19.0364 17.0824 18.884 16.8229 18.6371 16.6813L17.6294 16.1058C17.3336 15.9367 16.9646 16.1478 16.9646 16.4847V17.2608C16.9646 17.6488 16.54 17.8913 16.1997 17.6973L11.5779 15.0624C11.2381 14.8684 11.2381 14.3834 11.5779 14.1893L16.1997 11.5544C16.54 11.3604 16.9646 11.6029 16.9646 11.9909V12.4039C16.9646 14.1906 18.9224 15.3075 20.4889 14.4135L25.8251 11.3722C27.3916 10.4821 27.3916 8.24834 25.8251 7.35562Z" fill="black"/>
</svg>
