<svg xmlns="http://www.w3.org/2000/svg" width="38" height="24" viewBox="0 0 38 24">
  <rect width="38" height="24" rx="3" fill="#000"/>
  <path d="M10.5 6.2c-.4.5-1 .8-1.6.8-.1-.6.2-1.3.5-1.7.4-.5 1-.8 1.5-.8.1.6-.2 1.2-.4 1.7zm.4.9c-.9 0-1.6.5-2 .5s-1-.5-1.7-.5c-.9 0-1.7.5-2.1 1.3-.9 1.6-.2 3.9.7 5.2.4.6 1 1.3 1.6 1.3.7 0 .9-.4 1.7-.4s1 .4 1.7.4c.7 0 1.1-.6 1.6-1.3.5-.7.7-1.4.7-1.4-.7-.3-1.2-1.1-1.2-2 0-.8.4-1.5 1-1.9-.4-.6-1-.9-1.7-1l-.3-.2z" fill="#fff"/>
  <text x="24" y="15.5" font-family="Arial, Helvetica, sans-serif" font-size="8" font-weight="600" fill="#fff" text-anchor="middle">Pay</text>
</svg>
