<svg width="38" height="24" viewBox="0 0 38.0001 24" fill="none" xmlns="http://www.w3.org/2000/svg">
<path d="M17.7 0V24H10.5C9.2 24 8.4 23 8.7 21.7L13.1 2.3C13.4 0.999999 15 0 16.3 0H17.7ZM30.3 0C29 0 27.4 0.999999 27.1 2.3L22.6 21.7C22.3 23 23.1 24 24.4 24H19.5V0H30.3Z" fill="#1D4ED8"/>
<path d="M16.2996 0C14.9996 0 13.3996 1.1 13.0996 2.3L8.69961 21.7C8.39961 23 9.19961 24 10.4996 24H1.59961C0.799608 24 0.0996076 23.4 0.0996076 22.6V1.6C0.0996076 0.8 0.799608 0 1.59961 0H16.2996Z" fill="#E9292D"/>
<path d="M30.2997 0C28.9997 0 27.3997 1.1 27.0997 2.3L22.6997 21.7C22.3997 23 23.1997 24 24.4997 24H9.99969H10.4997C9.19969 24 8.39969 23 8.69969 21.7L13.0997 2.3C13.3997 0.999999 14.9997 0 16.2997 0H30.2997Z" fill="#0E73B9"/>
<path d="M38.0001 1.6V22.6C38.0001 23.4 37.4001 24 36.5001 24H24.4001C23.1001 24 22.3001 22.9 22.6001 21.7L27.1001 2.3C27.4001 0.999999 29.0001 0 30.3001 0H36.5001C37.4001 0 38.0001 0.7 38.0001 1.6Z" fill="#059DA4"/>
<path d="M14.8779 13.6445H15.0179C15.1579 13.6445 15.2979 13.5745 15.2979 13.5045L15.7179 12.8745H16.9079L16.6979 13.2245H18.0979L17.8879 13.8545H16.2079C15.9979 14.1345 15.7879 14.2745 15.5079 14.2745H14.6679L14.8779 13.6445ZM14.6679 14.5545H17.6779L17.4679 15.2545H16.2779L16.0679 15.9545H17.2579L17.0479 16.6545H15.8579L15.5779 17.7045C15.5079 17.8445 15.5779 17.9845 15.8579 17.9145H16.8379L16.6279 18.6145H14.7379C14.3879 18.6145 14.2479 18.4045 14.3879 17.9845L14.7379 16.6545H13.9679L14.1779 15.9545H14.9479L15.1579 15.2545H14.4579L14.6679 14.5545ZM19.4979 12.8045V13.2245C19.4979 13.2245 20.0579 12.8045 20.6179 12.8045H22.5779L21.8079 15.4645C21.7379 15.7445 21.4579 15.9545 21.0379 15.9545H18.7979L18.3079 17.8445C18.3079 17.9145 18.3079 17.9845 18.4479 17.9845H18.8679L18.7279 18.5445H17.6079C17.1879 18.5445 17.0479 18.4045 17.1179 18.1945L18.5879 12.8045H19.4979ZM21.1779 13.5745H19.4279L19.2179 14.2745C19.2179 14.2745 19.4979 14.0645 19.9879 14.0645H21.0379L21.1779 13.5745ZM20.5479 15.2545C20.6879 15.2545 20.7579 15.2545 20.7579 15.1145L20.8979 14.7645H19.1479L19.0079 15.3245L20.5479 15.2545ZM19.3579 16.0945H20.3379V16.5145H20.6179C20.7579 16.5145 20.8279 16.4445 20.8279 16.3745L20.8979 16.0945H21.7379L21.5979 16.5845C21.5279 16.9345 21.2479 17.0745 20.8279 17.1445H20.2679V17.9145C20.2679 18.0545 20.3379 18.1245 20.6179 18.1245H21.1079L20.9679 18.6845H19.7779C19.4279 18.6845 19.2879 18.5445 19.2879 18.1945L19.3579 16.0945ZM23.5579 13.6445L23.7679 12.8045H24.9579L24.8879 13.0845C24.8879 13.0845 25.4479 12.8045 25.9379 12.8045H27.4079L27.1979 13.6445H26.9879L25.8679 17.4945H26.0779L25.8679 18.2645H25.6579L25.5879 18.6145H24.3979L24.4679 18.2645H22.2979L22.5079 17.4945H22.7179L23.8379 13.6445H23.5579ZM24.8179 13.6445L24.5379 14.6945C24.5379 14.6945 25.0279 14.4845 25.4479 14.4145C25.5179 14.0645 25.6579 13.6445 25.6579 13.6445H24.8179ZM24.3279 15.1845L24.0479 16.3045C24.0479 16.3045 24.6079 16.0245 25.0279 16.0245C25.1679 15.6045 25.2379 15.2545 25.2379 15.2545L24.3279 15.1845ZM24.5379 17.4945L24.7479 16.7245H23.9079L23.6979 17.4945H24.5379ZM27.4079 12.8045H28.5279L28.5979 13.2245C28.5979 13.2945 28.6679 13.3645 28.8079 13.3645H29.0179L28.8079 14.0645H28.0379C27.7579 14.0645 27.5479 13.9945 27.5479 13.7145L27.4079 12.8045ZM27.0579 14.2745H30.6279L30.4179 15.0445H29.2279L29.0179 15.7445H30.1379L29.9279 16.5145H28.6679L28.3879 16.9345H29.0179L29.1579 17.7745C29.1579 17.8445 29.2279 17.9145 29.3679 17.9145H29.5779L29.3679 18.6145H28.6679C28.3179 18.6145 28.1079 18.5445 28.1079 18.2645L27.9679 17.4945L27.4079 18.3345C27.2679 18.5445 27.0579 18.6845 26.7779 18.6845H25.7279L25.9379 17.9845H26.2879C26.4279 17.9845 26.4979 17.9145 26.6379 17.7745L27.4779 16.5145H26.4279L26.6379 15.7445H27.8279L28.0379 15.0445H26.8479L27.0579 14.2745ZM7.31793 9.23445C7.17793 9.93445 6.89793 10.4245 6.40793 10.7745C5.91793 11.1245 5.28793 11.3345 4.51793 11.3345C3.81793 11.3345 3.25793 11.1245 2.97793 10.7745C2.76793 10.4945 2.62793 10.2145 2.62793 9.79445C2.62793 9.65445 2.62793 9.44445 2.69793 9.23445L3.53793 5.31445H4.72793L3.95793 9.23445V9.51445C3.95793 9.72445 4.02793 9.86445 4.09793 10.0045C4.23793 10.2145 4.44793 10.2845 4.79793 10.2845C5.14793 10.2845 5.49793 10.2145 5.70793 10.0045C5.91793 9.79445 6.12793 9.58445 6.19793 9.23445L6.96793 5.31445H8.15793L7.31793 9.23445ZM8.43793 7.69445H9.27793L9.20793 8.18445L9.34793 8.04445C9.62793 7.76445 9.97793 7.62445 10.3979 7.62445C10.7479 7.62445 11.0279 7.76445 11.1679 7.97445C11.3079 8.18445 11.3779 8.46445 11.3079 8.88445L10.8179 11.2645H9.90793L10.3279 9.09445C10.3979 8.81445 10.3979 8.60445 10.3279 8.53445C10.2579 8.39445 10.1179 8.39445 9.97793 8.39445C9.76793 8.39445 9.55793 8.46445 9.41793 8.60445C9.27793 8.74445 9.13793 8.95445 9.13793 9.23445L8.71793 11.2645H7.80793L8.43793 7.69445ZM18.2379 7.69445H19.0779L19.0079 8.18445L19.1479 8.04445C19.4279 7.76445 19.7779 7.62445 20.1979 7.62445C20.5479 7.62445 20.8279 7.76445 20.9679 7.97445C21.1079 8.18445 21.1779 8.46445 21.1079 8.88445L20.6179 11.2645H19.7079L20.1279 9.02446C20.1979 8.81446 20.1279 8.60445 20.0579 8.53445C19.9879 8.39445 19.8479 8.39445 19.7079 8.39445C19.4979 8.39445 19.2879 8.46445 19.1479 8.60445C19.0079 8.74445 18.8679 8.95445 18.8679 9.23445L18.4479 11.2645H17.5379L18.2379 7.69445ZM12.4279 7.69445H13.4079L12.6379 11.1945H11.6579L12.4279 7.69445ZM12.7779 6.36445H13.7579L13.5479 7.20446H12.5679L12.7779 6.36445ZM14.1779 10.9145C13.9679 10.7045 13.8279 10.3545 13.8279 9.93445V9.72445C13.8279 9.65445 13.8279 9.51445 13.8979 9.44445C14.0379 8.88445 14.2479 8.39446 14.5979 8.11446C14.9479 7.76446 15.4379 7.62445 15.9279 7.62445C16.3479 7.62445 16.6979 7.76445 16.9779 7.97445C17.1879 8.18445 17.3279 8.53446 17.3279 8.95446V9.16445C17.3279 9.23445 17.3279 9.37445 17.2579 9.44445C17.1179 10.0045 16.9079 10.4245 16.5579 10.7745C16.2079 11.1245 15.7179 11.2645 15.2279 11.2645C14.8779 11.2645 14.5279 11.1245 14.1779 10.9145ZM16.0679 10.2145C16.2079 10.0045 16.3479 9.72445 16.4179 9.37445V9.02446C16.4179 8.81446 16.3479 8.67445 16.2779 8.53445C16.2164 8.46603 16.1406 8.4118 16.056 8.37554C15.9714 8.33928 15.8799 8.32185 15.7879 8.32445C15.5079 8.32445 15.2979 8.39445 15.1579 8.60445C15.0179 8.81445 14.8779 9.09445 14.8079 9.44445V9.72445C14.8079 9.93445 14.8779 10.0745 14.9479 10.2145C15.0879 10.3545 15.2279 10.4245 15.4379 10.4245C15.7179 10.4945 15.8579 10.4245 16.0679 10.2145ZM22.5779 5.52445H25.0979C25.5879 5.52445 25.9379 5.66445 26.2179 5.87445C26.4979 6.08445 26.5679 6.43445 26.5679 6.78445V7.06445C26.5679 7.13445 26.5679 7.27445 26.4979 7.34445C26.4279 7.83445 26.1479 8.32445 25.7979 8.60445C25.3779 8.95445 24.9579 9.09445 24.3979 9.09445H22.9979L22.5779 11.1245H21.3879L22.5779 5.52445ZM23.1379 8.11446H24.2579C24.5379 8.11446 24.7479 8.04445 24.9579 7.90445C25.0979 7.76445 25.2379 7.55445 25.3079 7.27445V6.99445C25.3079 6.78445 25.2379 6.64445 25.0979 6.57445C24.9579 6.50445 24.7479 6.43445 24.3979 6.43445H23.4879L23.1379 8.11446ZM31.8179 11.8245C31.4679 12.5945 31.1179 13.0845 30.9079 13.2945C30.6979 13.5045 30.2779 13.9945 29.2979 13.9945L29.3679 13.3645C30.2079 13.0845 30.6279 11.9645 30.9079 11.4045L30.6279 7.62445H31.8179L31.8879 10.0045L32.7979 7.69445H33.8479L31.8179 11.8245ZM28.8779 7.97445L28.4579 8.25445C28.0379 7.90445 27.6179 7.69445 26.9179 8.04445C25.9379 8.53445 25.0279 12.1745 27.8279 10.9845L27.9679 11.1945H29.0879L29.7879 7.90445L28.8779 7.97445ZM28.3179 9.79445C28.1079 10.3545 27.7579 10.6345 27.4079 10.5645C27.1279 10.4245 27.0579 9.93445 27.1979 9.37445C27.4079 8.81445 27.7579 8.53445 28.1079 8.60445C28.3879 8.74445 28.4579 9.23445 28.3179 9.79445Z" fill="white"/>
</svg>
