<svg width="38" height="24" viewBox="0 0 38 24" fill="none" xmlns="http://www.w3.org/2000/svg">
<path opacity="0.07" d="M35 0H3C1.3 0 0 1.3 0 3V21C0 22.7 1.4 24 3 24H35C36.7 24 38 22.7 38 21V3C38 1.3 36.6 0 35 0Z" fill="black"/>
<path d="M35.889 0C37.05 0 38 0.982 38 2.182V21.818C38 23.018 37.05 24 35.889 24H2.11C0.95 24 0 23.018 0 21.818V2.182C0 0.982 0.95 0 2.111 0H35.889Z" fill="#5A31F4"/>
<path d="M9.35009 11.368C8.33309 11.145 7.88009 11.058 7.88009 10.663C7.88009 10.291 8.18609 10.105 8.80009 10.105C9.34009 10.105 9.73409 10.343 10.0251 10.809C10.0353 10.8263 10.0518 10.839 10.0711 10.8446C10.0905 10.8502 10.1112 10.8482 10.1291 10.839L11.2751 10.255C11.2848 10.2498 11.2935 10.2427 11.3004 10.234C11.3073 10.2254 11.3124 10.2155 11.3154 10.2048C11.3184 10.1942 11.3192 10.183 11.3178 10.1721C11.3163 10.1611 11.3127 10.1505 11.3071 10.141C10.8321 9.31 9.95409 8.855 8.79709 8.855C7.27709 8.855 6.33309 9.61 6.33309 10.811C6.33309 12.086 7.48309 12.408 8.50309 12.631C9.52309 12.853 9.97709 12.941 9.97709 13.336C9.97709 13.732 9.64509 13.918 8.98409 13.918C8.37209 13.918 7.91909 13.636 7.64409 13.088C7.63446 13.0692 7.61782 13.055 7.59779 13.0485C7.57775 13.0419 7.55594 13.0436 7.53709 13.053L6.39409 13.623C6.37469 13.633 6.36003 13.6503 6.35329 13.6711C6.34655 13.6919 6.34827 13.7145 6.35809 13.734C6.81209 14.654 7.74209 15.171 8.98509 15.171C10.5681 15.171 11.5241 14.429 11.5241 13.191C11.5241 11.953 10.3691 11.593 9.35109 11.371L9.35009 11.368ZM15.4901 8.855C14.8401 8.855 14.2661 9.087 13.8541 9.501C13.8484 9.50698 13.8411 9.51107 13.833 9.51272C13.825 9.51437 13.8166 9.5135 13.8091 9.51022C13.8015 9.50694 13.7952 9.50141 13.7909 9.4944C13.7866 9.48738 13.7846 9.47921 13.7851 9.471V6.831C13.7852 6.82041 13.7833 6.8099 13.7793 6.80008C13.7753 6.79026 13.7695 6.78132 13.762 6.77378C13.7546 6.76625 13.7457 6.76027 13.7359 6.75618C13.7262 6.7521 13.7157 6.75 13.7051 6.75H12.2701C12.2594 6.75 12.2488 6.75213 12.239 6.75628C12.2292 6.76042 12.2203 6.76649 12.2128 6.77413C12.2053 6.78178 12.1995 6.79083 12.1956 6.80077C12.1917 6.81071 12.1898 6.82133 12.1901 6.832V15.026C12.1898 15.0367 12.1917 15.0473 12.1956 15.0572C12.1995 15.0672 12.2053 15.0762 12.2128 15.0839C12.2203 15.0915 12.2292 15.0976 12.239 15.1017C12.2488 15.1059 12.2594 15.108 12.2701 15.108H13.7031C13.7139 15.1081 13.7245 15.1061 13.7345 15.102C13.7444 15.0979 13.7535 15.0919 13.761 15.0842C13.7686 15.0766 13.7745 15.0675 13.7785 15.0575C13.7825 15.0475 13.7844 15.0368 13.7841 15.026V11.432C13.7841 10.737 14.3121 10.205 15.0231 10.205C15.7331 10.205 16.2491 10.726 16.2491 11.432V15.026C16.2488 15.0368 16.2507 15.0475 16.2547 15.0575C16.2586 15.0675 16.2646 15.0766 16.2722 15.0842C16.2797 15.0919 16.2887 15.0979 16.2987 15.102C16.3087 15.1061 16.3193 15.1081 16.3301 15.108H17.7631C17.7739 15.1081 17.7845 15.1061 17.7945 15.102C17.8044 15.0979 17.8135 15.0919 17.821 15.0842C17.8286 15.0766 17.8345 15.0675 17.8385 15.0575C17.8425 15.0475 17.8444 15.0368 17.8441 15.026V11.432C17.8441 9.922 16.8641 8.855 15.4901 8.855ZM20.7531 8.62C19.9751 8.62 19.2461 8.86 18.7231 9.208C18.7056 9.21932 18.693 9.2369 18.688 9.25715C18.683 9.2774 18.6859 9.29881 18.6961 9.317L19.3281 10.405C19.3333 10.4143 19.3403 10.4224 19.3486 10.4289C19.357 10.4354 19.3666 10.4402 19.3768 10.443C19.387 10.4458 19.3977 10.4466 19.4083 10.4452C19.4188 10.4438 19.4289 10.4403 19.4381 10.435C19.8349 10.1928 20.2913 10.0661 20.7561 10.069C22.0061 10.069 22.9261 10.96 22.9261 12.137C22.9261 13.14 22.1901 13.882 21.2571 13.882C20.4971 13.882 19.9691 13.436 19.9691 12.805C19.9691 12.444 20.1211 12.148 20.5171 11.939C20.5269 11.934 20.5356 11.927 20.5426 11.9185C20.5496 11.91 20.5548 11.9001 20.5578 11.8895C20.5608 11.8789 20.5616 11.8678 20.5601 11.8568C20.5586 11.8459 20.5548 11.8354 20.5491 11.826L19.9531 10.808C19.9436 10.7914 19.9285 10.7788 19.9106 10.7724C19.8926 10.766 19.8729 10.7662 19.8551 10.773C19.0561 11.072 18.4961 11.791 18.4961 12.757C18.4961 14.217 19.6481 15.307 21.2561 15.307C23.1331 15.307 24.4831 13.994 24.4831 12.112C24.4831 10.094 22.9131 8.62 20.7531 8.62ZM28.6751 8.843C27.9511 8.843 27.3021 9.113 26.8301 9.589C26.8041 9.616 26.7611 9.596 26.7611 9.56V8.988C26.7614 8.97733 26.7595 8.96671 26.7556 8.95677C26.7517 8.94683 26.7458 8.93778 26.7384 8.93013C26.7309 8.92249 26.722 8.91642 26.7122 8.91228C26.7023 8.90813 26.6918 8.906 26.6811 8.906H25.2841C25.2734 8.906 25.2628 8.90813 25.253 8.91228C25.2432 8.91642 25.2343 8.92249 25.2268 8.93013C25.2193 8.93778 25.2135 8.94683 25.2096 8.95677C25.2057 8.96671 25.2038 8.97733 25.2041 8.988V17.17C25.204 17.1806 25.2059 17.1911 25.2099 17.2009C25.2139 17.2107 25.2197 17.2197 25.2272 17.2272C25.2346 17.2348 25.2435 17.2407 25.2532 17.2448C25.263 17.2489 25.2735 17.251 25.2841 17.251H26.7171C26.7278 17.2511 26.7384 17.2491 26.7482 17.2451C26.7581 17.2411 26.7671 17.2351 26.7747 17.2276C26.7822 17.22 26.7882 17.211 26.7922 17.2012C26.7962 17.1913 26.7982 17.1807 26.7981 17.17V14.487C26.7981 14.451 26.8411 14.433 26.8671 14.457C27.357 14.9147 28.0047 15.1655 28.6751 15.157C30.3571 15.157 31.6681 13.784 31.6681 12C31.6681 10.216 30.3551 8.843 28.6751 8.843ZM28.4041 13.772C27.4481 13.772 26.7231 13.004 26.7231 11.989C26.7231 10.974 27.4461 10.206 28.4041 10.206C29.3621 10.206 30.0841 10.961 30.0841 11.989C30.0841 13.016 29.3721 13.772 28.4041 13.772Z" fill="white"/>
</svg>
