<svg preserveAspectRatio="none" width="100%" height="100%" overflow="visible" style="display: block;" viewBox="0 0 27 27" fill="none" xmlns="http://www.w3.org/2000/svg">
<g id="Item &#226;&#134;&#146; Link - Follow on YouTube">
<path id="Vector" fill-rule="evenodd" clip-rule="evenodd" d="M22.9935 5.64523C24.0386 5.91973 24.861 6.7286 25.1411 7.75573C25.6485 9.61648 25.6485 13.5 25.6485 13.5C25.6485 13.5 25.6485 17.3835 25.1411 19.2442C24.9993 19.7535 24.7261 20.2165 24.349 20.5869C23.9719 20.9573 23.5041 21.2221 22.9924 21.3547C21.0979 21.8531 13.4985 21.8531 13.4985 21.8531C13.4985 21.8531 5.90023 21.8531 4.00461 21.3547C3.49296 21.222 3.02517 20.9572 2.64806 20.5868C2.27096 20.2164 1.99777 19.7534 1.85586 19.2442C1.34961 17.3835 1.34961 13.5 1.34961 13.5C1.34961 13.5 1.34961 9.61648 1.85586 7.75573C1.99767 7.24649 2.27082 6.78348 2.64794 6.41307C3.02506 6.04266 3.49291 5.77787 4.00461 5.64523C5.90023 5.14685 13.4996 5.14685 13.4996 5.14685C13.4996 5.14685 21.0979 5.14685 22.9924 5.64523H22.9935ZM17.364 13.5L11.0145 17.0268V9.97422L17.3662 13.5H17.364Z" fill="var(--fill-0, #FCFCFC)"/>
</g>
</svg>
