<svg preserveAspectRatio="none" width="100%" height="100%" overflow="visible" style="display: block;" viewBox="0 0 27 27" fill="none" xmlns="http://www.w3.org/2000/svg">
<g id="Item &#226;&#134;&#146; Link - Follow on Instagram">
<path id="Vector" fill-rule="evenodd" clip-rule="evenodd" d="M13.5012 2.69995C10.5683 2.69995 10.2004 2.71233 9.04842 2.7652C7.89867 2.81695 7.11342 3.00033 6.42717 3.26695C5.7067 3.53807 5.05403 3.96307 4.51467 4.51233C3.96504 5.05159 3.53965 5.70426 3.26817 6.42483C3.00155 7.1122 2.81817 7.89858 2.76642 9.0472C2.71242 10.1992 2.70117 10.566 2.70117 13.5C2.70117 16.4328 2.71355 16.8007 2.76642 17.9527C2.81817 19.1025 3.00155 19.8877 3.26817 20.574C3.53932 21.2944 3.96432 21.9471 4.51355 22.4865C5.1143 23.0883 5.7173 23.4573 6.42605 23.733C7.11342 23.9996 7.89867 24.183 9.0473 24.2347C10.2004 24.2876 10.5683 24.3 13.5012 24.3C16.434 24.3 16.8019 24.2876 17.9539 24.2347C19.1037 24.183 19.8889 23.9996 20.5752 23.733C21.2956 23.4618 21.9483 23.0368 22.4877 22.4876C23.0373 21.9483 23.4627 21.2956 23.7342 20.5751C24.0008 19.8877 24.1842 19.1013 24.2359 17.9538C24.2888 16.8007 24.3012 16.4328 24.3012 13.5C24.3012 10.5671 24.2888 10.1992 24.2359 9.0472C24.183 7.89745 24.0008 7.1122 23.7342 6.42595C23.463 5.70549 23.038 5.05283 22.4888 4.51345C21.9496 3.96379 21.2969 3.5384 20.5763 3.26695C19.8889 3.00033 19.1025 2.81695 17.9539 2.7652C16.8019 2.7112 16.4352 2.69995 13.5012 2.69995ZM13.5012 4.6462C16.3845 4.6462 16.7265 4.65745 17.8662 4.7092C18.918 4.75645 19.4895 4.93308 19.8709 5.08045C20.3749 5.2762 20.7349 5.5102 21.1129 5.8882C21.4909 6.2662 21.7249 6.6262 21.9207 7.1302C22.068 7.51045 22.2435 8.08308 22.2919 9.13608C22.3437 10.2746 22.3549 10.6166 22.3549 13.5C22.3549 16.3833 22.3437 16.7253 22.2919 17.865C22.2435 18.9168 22.068 19.4895 21.9207 19.8697C21.7473 20.339 21.4709 20.7634 21.1118 21.1117C20.7637 21.4702 20.3397 21.7463 19.8709 21.9195C19.4895 22.0668 18.918 22.2435 17.865 22.2907C16.7265 22.3425 16.3845 22.3537 13.5 22.3537C10.6167 22.3537 10.2758 22.3425 9.1373 22.2907C8.0843 22.2435 7.51167 22.0668 7.13142 21.9195C6.66226 21.7464 6.23786 21.4704 5.88942 21.1117C5.53074 20.7633 5.25472 20.3389 5.08167 19.8697C4.9343 19.4895 4.75767 18.9168 4.71042 17.8638C4.65755 16.7253 4.64742 16.3833 4.64742 13.5C4.64742 10.6166 4.65867 10.2746 4.71042 9.13495C4.75767 8.08308 4.9343 7.51158 5.08167 7.1302C5.27742 6.6262 5.51142 6.2662 5.88942 5.8882C6.23786 5.52952 6.66226 5.2535 7.13142 5.08045C7.51167 4.93308 8.0843 4.75645 9.1373 4.7092C10.2758 4.65745 10.6178 4.6462 13.5012 4.6462ZM13.5012 17.1C12.5464 17.1 11.6307 16.7207 10.9556 16.0455C10.2805 15.3704 9.90117 14.4547 9.90117 13.5C9.90117 12.5452 10.2805 11.6295 10.9556 10.9544C11.6307 10.2792 12.5464 9.89995 13.5012 9.89995C14.456 9.89995 15.3716 10.2792 16.0468 10.9544C16.7219 11.6295 17.1012 12.5452 17.1012 13.5C17.1012 14.4547 16.7219 15.3704 16.0468 16.0455C15.3716 16.7207 14.456 17.1 13.5012 17.1ZM13.5012 7.9537C12.7728 7.9537 12.0516 8.09716 11.3787 8.37588C10.7058 8.65461 10.0944 9.06314 9.57938 9.57816C9.06436 10.0932 8.65583 10.7046 8.3771 11.3775C8.09838 12.0504 7.95492 12.7716 7.95492 13.5C7.95492 14.2283 8.09838 14.9495 8.3771 15.6224C8.65583 16.2953 9.06436 16.9067 9.57938 17.4217C10.0944 17.9368 10.7058 18.3453 11.3787 18.624C12.0516 18.9027 12.7728 19.0462 13.5012 19.0462C14.9721 19.0462 16.3828 18.4619 17.423 17.4217C18.4631 16.3816 19.0474 14.9709 19.0474 13.5C19.0474 12.029 18.4631 10.6183 17.423 9.57816C16.3828 8.53804 14.9721 7.9537 13.5012 7.9537ZM20.5617 7.73545C20.5617 8.07917 20.4251 8.40881 20.1821 8.65186C19.939 8.89491 19.6094 9.03145 19.2657 9.03145C18.922 9.03145 18.5923 8.89491 18.3493 8.65186C18.1062 8.40881 17.9697 8.07917 17.9697 7.73545C17.9697 7.39173 18.1062 7.06209 18.3493 6.81904C18.5923 6.57599 18.922 6.43945 19.2657 6.43945C19.6094 6.43945 19.939 6.57599 20.1821 6.81904C20.4251 7.06209 20.5617 7.39173 20.5617 7.73545Z" fill="var(--fill-0, #FCFCFC)"/>
</g>
</svg>
