<svg preserveAspectRatio="none" width="100%" height="100%" overflow="visible" style="display: block;" viewBox="0 0 27 27" fill="none" xmlns="http://www.w3.org/2000/svg">
<g id="Item &#226;&#134;&#146; Link - Follow on LinkedIn">
<path id="Vector" fill-rule="evenodd" clip-rule="evenodd" d="M8.94291 6.86042C8.9494 6.57939 8.89965 6.29989 8.79659 6.03836C8.69353 5.77683 8.53923 5.53853 8.34277 5.33748C8.14631 5.13642 7.91164 4.97666 7.65255 4.86759C7.39347 4.75852 7.1152 4.70233 6.83409 4.70233C6.55299 4.70233 6.27472 4.75852 6.01563 4.86759C5.75655 4.97666 5.52188 5.13642 5.32542 5.33748C5.12895 5.53853 4.97466 5.77683 4.8716 6.03836C4.76854 6.29989 4.71879 6.57939 4.72528 6.86042C4.71879 7.14145 4.76854 7.42094 4.8716 7.68248C4.97466 7.94401 5.12895 8.1823 5.32542 8.38336C5.52188 8.58441 5.75655 8.74417 6.01563 8.85324C6.27472 8.96232 6.55299 9.0185 6.83409 9.0185C7.1152 9.0185 7.39347 8.96232 7.65255 8.85324C7.91164 8.74417 8.14631 8.58441 8.34277 8.38336C8.53923 8.1823 8.69353 7.94401 8.79659 7.68248C8.89965 7.42094 8.9494 7.14145 8.94291 6.86042ZM8.65378 22.2977H5.01441V10.5752H8.65378V22.2977ZM14.4228 10.5752H10.9364V22.2977H14.5679V16.4994C14.5679 14.9694 14.857 13.4889 16.7504 13.4889C18.6157 13.4889 18.6404 15.2372 18.6404 16.5973V22.2977H22.2753V15.8683C22.2753 12.7115 21.5947 10.2849 17.9137 10.2849C16.144 10.2849 14.956 11.2558 14.4712 12.1783H14.4217V10.5752H14.4228Z" fill="var(--fill-0, #FCFCFC)"/>
</g>
</svg>
