<svg preserveAspectRatio="none" width="100%" height="100%" overflow="visible" style="display: block;" viewBox="0 0 27 27" fill="none" xmlns="http://www.w3.org/2000/svg">
<g id="Item &#226;&#134;&#146; Link - Follow on Facebook">
<path id="Vector" fill-rule="evenodd" clip-rule="evenodd" d="M11.1802 24.4407V14.4642H7.82437V10.5762H11.1802V7.71419C11.1128 7.03481 11.1944 6.34889 11.4194 5.70432C11.6445 5.05974 12.0075 4.47205 12.4831 3.98228C12.9587 3.4925 13.5355 3.11244 14.1732 2.86863C14.8109 2.62483 15.4942 2.52315 16.1752 2.57069C17.1777 2.56478 18.1796 2.61888 19.1756 2.73269V6.20219H17.1169C16.8555 6.14675 16.5844 6.15682 16.3279 6.23153C16.0713 6.30623 15.8372 6.44323 15.6464 6.63034C15.4556 6.81744 15.3141 7.04883 15.2344 7.30389C15.1547 7.55895 15.1394 7.82976 15.1897 8.09219V10.5762H19.0406L18.5377 14.4642H15.1965V24.4407H11.1802Z" fill="var(--fill-0, #FCFCFC)"/>
</g>
</svg>
