<svg width="90" height="90" viewBox="0 0 90 90" fill="none" xmlns="http://www.w3.org/2000/svg">
<path d="M51.5596 19.781L66.7416 34.9578C67.2486 35.4649 68.9463 36.8451 68.9898 37.5646C69.0385 38.4122 68.0424 38.9268 67.2358 38.1253L51.8564 22.746C51.2957 22.1903 48.9936 20.4824 49.9026 19.5631C50.489 18.9665 51.0449 19.2663 51.5596 19.781Z" fill="white"/>
<path d="M61.5019 2.54588C63.1074 3.92604 59.8195 4.766 59.1205 5.07581C50.2991 8.9859 44.4558 17.605 43.3753 27.11L53.6797 37.4246C56.5655 40.29 59.4822 43.14 62.3194 46.0541C63.1798 45.8748 64.0632 45.8159 64.921 45.6136C71.4609 44.0875 76.2567 41.1865 80.5842 36.1728L59.9889 15.5774C58.9339 14.5224 56.701 13.1601 57.5409 11.7262C58.5293 11.127 58.9723 11.8517 59.6176 12.497L81.7522 34.6367C83.0453 33.1438 83.9518 31.1824 84.7456 29.3796C85.0093 28.7779 85.8441 26.4937 86.9093 27.9431C87.5444 28.8086 86.2001 30.9109 85.798 31.6868C82.5665 37.8989 77.855 42.636 71.3635 45.5068C63.4178 49.0123 55.6131 48.8585 47.4315 46.7509C46.9706 46.6332 46.5199 46.4795 46.0539 46.3822C46.6146 47.9058 47.0141 49.8468 47.3214 51.4446C50.125 66.2629 44.0129 79.8886 30.416 86.4072C29.4148 86.886 28.6235 87.4775 27.8425 86.379C27.8092 86.0026 27.8732 85.7593 28.0551 85.429C28.8796 84.9169 29.8296 84.6223 30.6875 84.1691C31.9857 83.4854 33.1764 82.6583 34.4491 81.9388C33.4709 80.9197 32.4466 79.9364 31.448 78.9377L7.58287 55.0726C5.79297 57.3798 5.40376 59.2696 4.16187 61.505C3.76496 62.2194 2.73813 62.0325 2.4411 61.3411C2.1748 60.7163 3.02747 59.2798 3.28097 58.719C7.59814 49.1678 16.5043 42.812 26.8823 41.591C31.5298 41.0456 38.5588 41.7549 43.0554 43.3832C38.3051 27.9499 42.7119 10.4377 58.2525 3.35739C59.0873 2.97842 60.6159 1.95182 61.5019 2.54588ZM27.1685 43.5523C19.6172 44.8557 13.638 47.2346 8.72172 53.4977L35.8927 80.6686C36.8427 80.0413 37.7108 79.081 38.4789 78.2463C42.873 73.4681 45.0187 68.5723 45.8767 62.26C45.0573 61.5482 44.3121 60.6955 43.5414 59.9247L30.9788 47.3622C29.7113 46.0947 28.4028 44.8531 27.1685 43.5523ZM43.2856 29.6527C42.4841 31.2378 43.9257 38.9581 44.3534 40.6764C44.6401 41.8133 45.0063 42.9375 45.2752 44.077C47.6003 45.0142 51.1161 45.7183 53.5461 46.0077C55.5562 46.3073 57.8403 46.3943 59.8607 46.2279L48.8137 35.181C46.9726 33.3399 45.16 31.4606 43.2856 29.6527ZM43.7825 45.5703C38.3718 44.1337 35.1582 43.4039 29.614 43.3243L46.0665 59.7767C46.1817 55.2879 45.4929 51.4802 44.2562 47.1707C44.1896 46.9351 43.8772 45.6752 43.7825 45.5703Z" fill="white"/>
<path d="M20.6518 49.8435C22.0831 51.239 23.4838 52.6756 24.8974 54.0891L33.4579 62.6496C34.0494 63.2411 38.1541 67.2229 38.3538 67.6121C38.8122 68.5007 37.7572 69.2279 36.9608 68.8925L20.8211 52.7527C20.3627 52.2944 19.6483 51.7438 19.3154 51.1959C18.7521 50.2638 19.7939 49.5388 20.6518 49.8435Z" fill="white"/>
</svg>
