<svg width="73" height="68" viewBox="0 0 73 68" fill="none" xmlns="http://www.w3.org/2000/svg">
<path d="M47.5209 44.8869L27.0091 21.3249L44.5835 6.02726C51.079 0.371568 60.9665 1.0553 66.6222 7.55403C72.2779 14.0495 71.5941 23.937 65.0954 29.5893L47.5209 44.8869ZM28.0612 61.8275C21.5658 67.4831 11.6783 66.7994 6.02592 60.3007C0.370222 53.8053 1.05395 43.9178 7.54937 38.2621L25.3529 22.7653L45.8647 46.3274L28.0612 61.8241V61.8275ZM68.2784 6.11024C61.8294 -1.29792 50.5512 -2.08122 43.1431 4.37105L6.10889 36.6092C-1.29927 43.0581 -2.07925 54.3363 4.3697 61.7445C10.8187 69.1526 22.0969 69.9359 29.505 63.4837L66.5392 31.2455C73.9474 24.7966 74.7307 13.5184 68.2784 6.11024Z" fill="white"/>
<path d="M37.1817 49.15C37.58 49.608 38.2737 49.6545 38.7317 49.2562L41.2774 47.0391C41.7355 46.6408 41.7819 45.9471 41.3836 45.4891C40.9854 45.031 40.2917 44.9846 39.8336 45.3829L37.2879 47.6C36.8299 47.9983 36.7834 48.692 37.1817 49.15Z" fill="white"/>
<path d="M22.087 62.2991C22.4853 62.7571 23.1789 62.8036 23.637 62.4053L34.9318 52.5742C35.3898 52.176 35.4363 51.4823 35.038 51.0242C34.6397 50.5662 33.946 50.5197 33.488 50.918L22.1932 60.7491C21.7352 61.1474 21.6887 61.8411 22.087 62.2991Z" fill="white"/>
<path d="M49.3269 6.43244C48.9286 5.97441 48.2349 5.92794 47.7769 6.32623L37.1658 15.5632C36.7078 15.9615 36.6613 16.6552 37.0596 17.1132C37.4579 17.5712 38.1516 17.6177 38.6096 17.2194L49.2207 7.98244C49.6787 7.58415 49.7252 6.89047 49.3269 6.43244Z" fill="white"/>
<path d="M34.3293 19.4881C33.931 19.0301 33.2373 18.9836 32.7793 19.3819L30.6883 21.2041C30.2303 21.6023 30.1838 22.296 30.5821 22.7541C30.9804 23.2121 31.6741 23.2586 32.1321 22.8603L34.2231 21.0381C34.6811 20.6398 34.7276 19.9461 34.3293 19.4881Z" fill="white"/>
</svg>
