<svg viewBox="0 0 75 75" fill="none" xmlns="http://www.w3.org/2000/svg">
<g id="Vector">
<path d="M0.937152 74.9994H28.1835C28.7013 74.9994 29.121 74.5798 29.121 74.0619V69.7091H46.8375C51.1607 69.7091 54.7298 66.4311 55.1977 62.2309H69.9057C72.7148 62.2309 75 59.9457 75 57.1365C75 54.3273 72.7148 52.0421 69.9057 52.0421L38.7257 52.0418C35.9166 52.0418 33.6314 54.327 33.6314 57.1362C33.6314 59.9454 35.9166 62.2306 38.7257 62.2306H53.3032C52.846 65.3931 50.125 67.8337 46.8377 67.8337L29.1211 67.834V54.7517C29.1211 50.9989 27.6819 47.5846 25.3418 45L29.8846 32.6403L40.9433 43.6992C41.5595 44.3153 42.3783 44.6546 43.2496 44.6546C43.7138 44.6546 44.1599 44.5521 44.5716 44.369L47.9939 47.7913C48.177 47.9744 48.4169 48.066 48.6568 48.066C48.8966 48.066 49.1365 47.9744 49.3196 47.7913L50.1094 47.0016L50.6435 47.5356C51.5013 48.3938 52.6283 48.8229 53.7557 48.8229C54.8827 48.8229 56.0097 48.3941 56.8676 47.5356L59.4768 44.9263C61.1928 43.2103 61.1928 40.4182 59.4768 38.7018L58.9431 38.1681L59.7331 37.378C59.9089 37.2022 60.0078 36.9639 60.0078 36.7151C60.0078 36.4667 59.9089 36.2281 59.7331 36.0523L56.3105 32.6296C56.4933 32.2182 56.5959 31.772 56.5959 31.3079C56.5959 30.4369 56.2568 29.6178 55.6404 29.0016L29.3207 2.68074C28.1091 1.46885 26.0177 1.45572 24.7775 2.6249L23.2187 1.06572C21.7977 -0.355242 19.4845 -0.355242 18.0636 1.06572L13.0083 6.12137C11.5874 7.54289 11.5874 9.85497 13.0083 11.2765L14.5669 12.8347C13.359 14.111 13.373 16.1285 14.6233 17.3786L21.224 23.9793L3.57699 45.2227C3.42593 45.3967 3.27853 45.5731 3.13571 45.754L2.86532 46.0794C2.83297 46.1181 2.82137 46.1651 2.79635 46.2072C1.04587 48.6106 0 51.558 0 54.7519L0.000305178 74.0625C1.95361e-08 74.5804 0.419926 75 0.9375 75L0.937152 74.9994ZM35.5062 57.1365C35.5062 55.3613 36.9502 53.9172 38.7255 53.9172H69.9062C71.6815 53.9172 73.1255 55.3613 73.1255 57.1365C73.1255 58.9118 71.6815 60.3559 69.9062 60.3559L38.7255 60.3562C36.9502 60.3562 35.5062 58.9118 35.5062 57.1365ZM58.1517 40.0276C59.1367 41.0127 59.1367 42.6152 58.1517 43.6006L55.5424 46.2099C54.5573 47.1953 52.9548 47.1953 51.9694 46.2099L51.4354 45.6758L57.6177 39.4938L58.1517 40.0276ZM48.6571 45.8029L46.0548 43.2006L55.1431 34.1129L57.7454 36.7152L48.6571 45.8029ZM14.3334 7.44663L19.3889 2.39098C20.0786 1.70158 21.2017 1.70066 21.8926 2.39098L23.4448 3.94343L15.8858 11.5022L14.3337 9.95035C13.6434 9.25973 13.6433 8.13696 14.3334 7.44663ZM15.9484 14.0907L26.0336 4.00617C26.2951 3.74432 26.6433 3.59997 27.0138 3.59997C27.3843 3.59997 27.7325 3.74433 27.9944 4.00617L54.3149 30.327C54.5768 30.5889 54.7211 30.9371 54.7211 31.3076C54.7211 31.6778 54.5768 32.0263 54.3149 32.2881L44.2297 42.3735H44.2291C43.7063 42.8972 42.7923 42.8972 42.2683 42.3735L15.9478 16.0527C15.4073 15.5122 15.4073 14.6317 15.9478 14.0913L15.9484 14.0907ZM28.4235 31.1794L23.8696 43.5687C21.3436 41.4623 18.0981 40.191 14.5601 40.191C12.7386 40.191 11.0011 40.5419 9.3923 41.1557L22.5549 25.3108L28.4235 31.1794ZM1.87403 54.7517C1.87403 51.8122 2.88811 49.1101 4.57304 46.9565L5.03233 46.4035C7.3593 43.7515 10.7627 42.0659 14.5598 42.0659C21.5544 42.0659 27.2458 47.757 27.2458 54.7521V73.1251H1.87449L1.87403 54.7517Z" fill="white"/>
<path d="M14.5599 47.366C11.2924 47.366 8.63393 50.0241 8.63393 53.2921C8.63393 56.5593 11.292 59.2175 14.5599 59.2175C17.8274 59.2175 20.4859 56.5594 20.4859 53.2921C20.4859 50.0245 17.8278 47.366 14.5599 47.366ZM14.5599 57.3428C12.3266 57.3428 10.5089 55.5257 10.5089 53.2924C10.5089 51.0591 12.3263 49.2414 14.5599 49.2414C16.7932 49.2414 18.6109 51.0588 18.6109 53.2924C18.6109 55.5257 16.7935 57.3428 14.5599 57.3428Z" fill="white"/>
</g>
</svg>
