<svg viewBox="0 0 46 66" fill="none" xmlns="http://www.w3.org/2000/svg">
<path id="Vector" d="M38.0115 40.9592C39.7612 39.9584 40.9462 38.0491 40.9462 35.863V32.5484C40.9462 31.5547 41.3226 30.6178 42.0197 29.9151L44.32 27.5658C45.4075 26.4586 46 24.9893 46 23.4278C46 21.8663 45.4005 20.3971 44.32 19.2899L42.0197 16.9405C41.3296 16.2378 40.9462 15.3009 40.9462 14.3072V10.9926C40.9462 7.77024 38.367 5.14408 35.2023 5.14408H31.947C30.9711 5.14408 30.0509 4.7608 29.3608 4.05813L27.0605 1.70878C24.8229 -0.569593 21.1771 -0.569593 18.9395 1.70878L16.6392 4.05813C15.9491 4.7608 15.0289 5.14408 14.053 5.14408H10.7977C7.63297 5.14408 5.0538 7.77024 5.0538 10.9926V14.3072C5.0538 15.3009 4.67737 16.2378 3.9803 16.9405L1.67995 19.2828C0.592514 20.39 0 21.8592 0 23.4207C0 24.9822 0.599485 26.4515 1.67995 27.5587L3.9803 29.9081C4.6704 30.6107 5.0538 31.5405 5.0538 32.5413V35.8559C5.0538 38.042 6.23882 39.9442 7.98848 40.9521L1.13623 59.0016C0.989846 59.392 1.08047 59.8321 1.36627 60.1302C1.65904 60.4283 2.09123 60.5277 2.47462 60.3786L11.0765 57.1207L15.2938 65.4251C15.4751 65.78 15.8306 66 16.2209 66C16.2419 66 16.2558 66 16.2767 66C16.688 65.9787 17.0505 65.709 17.1968 65.3186L23.0035 50.023L28.8101 65.3186C28.9565 65.709 29.319 65.9716 29.7303 66C29.7512 66 29.7651 66 29.786 66C30.1764 66 30.5319 65.78 30.7131 65.4251L34.9304 57.1207L43.5324 60.3786C43.9157 60.5206 44.3479 60.4283 44.6407 60.1302C44.9335 59.8321 45.0171 59.392 44.8707 59.0016L38.0185 40.9521L38.0115 40.9592ZM34.7841 54.814C34.2891 54.6294 33.7315 54.8424 33.4945 55.325L29.9185 62.366L24.1188 47.0916L24.2582 46.7155C25.2829 46.4812 26.2588 45.9631 27.0535 45.154L29.3538 42.8046C30.0439 42.1019 30.9641 41.7187 31.94 41.7187H35.1953C35.4742 41.7187 35.753 41.6903 36.0249 41.6477L42.0755 57.575L34.7771 54.814H34.7841ZM21.8742 47.0846L16.0746 62.3589L12.4986 55.3179C12.3173 54.9559 11.9479 54.743 11.5715 54.743C11.4529 54.743 11.3275 54.7643 11.209 54.8069L3.91059 57.5679L9.96121 41.6406C10.2331 41.6832 10.5049 41.7116 10.7907 41.7116H14.0461C15.022 41.7116 15.9421 42.0949 16.6322 42.7975L18.9326 45.1469C19.7272 45.956 20.7031 46.4742 21.7278 46.7084C21.8185 46.7297 21.9021 46.751 21.9927 46.7652L21.8742 47.0846ZM5.45113 28.4104L3.15078 26.0611C2.46068 25.3584 2.07728 24.4215 2.07728 23.4278C2.07728 22.4341 2.45371 21.4972 3.15078 20.7946L5.45113 18.4523C6.53857 17.3451 7.13108 15.8758 7.13108 14.3143V10.9997C7.13108 8.94846 8.76921 7.28049 10.7838 7.28049H14.0391C15.5727 7.28049 17.0156 6.67009 18.103 5.56994L20.4034 3.22059C21.8254 1.77266 24.1467 1.77266 25.5687 3.22059L27.8691 5.56994C28.9565 6.67719 30.3925 7.28049 31.933 7.28049H35.1884C37.2029 7.28049 38.841 8.94846 38.841 10.9997V14.3143C38.841 15.8758 39.4405 17.3451 40.521 18.4523L42.8213 20.7946C43.5114 21.4972 43.8948 22.4341 43.8948 23.4278C43.8948 24.4215 43.5184 25.3584 42.8213 26.0611L40.521 28.4033C39.4335 29.5106 38.841 30.9727 38.841 32.5413V35.8559C38.841 37.1335 38.1997 38.2692 37.2308 38.9364C36.945 39.1351 36.6174 39.2771 36.2828 39.3835C35.9482 39.49 35.5996 39.561 35.2302 39.5681C35.2162 39.5681 35.2023 39.5681 35.1884 39.5681H31.933C31.7309 39.5681 31.5287 39.5823 31.3335 39.6035C30.3228 39.71 29.3748 40.0862 28.5592 40.6966C28.3222 40.874 28.0921 41.0657 27.876 41.2857L25.5757 43.6351C25.506 43.706 25.4223 43.7557 25.3526 43.8196C24.9344 44.1816 24.4534 44.4371 23.9445 44.5791C23.7075 44.6429 23.4636 44.6855 23.2126 44.6997C23.0662 44.7068 22.9198 44.7068 22.7734 44.6997C22.5295 44.6855 22.2855 44.6429 22.0415 44.5791C21.5327 44.4371 21.0517 44.1887 20.6334 43.8196C20.5568 43.7557 20.4801 43.706 20.4104 43.6351L18.11 41.2857C17.8939 41.0657 17.6639 40.874 17.4269 40.6966C16.6113 40.0862 15.6633 39.71 14.6525 39.6035C14.4504 39.5823 14.2552 39.5681 14.053 39.5681H10.7977C10.7977 39.5681 10.7698 39.5681 10.7559 39.5681C10.3864 39.5681 10.0379 39.49 9.70329 39.3835C9.36172 39.2771 9.04107 39.1351 8.75527 38.9364C7.78633 38.2692 7.14502 37.1335 7.14502 35.8559V32.5413C7.14502 30.9798 6.54554 29.5106 5.46507 28.4033L5.45113 28.4104ZM22.9965 36.6651C30.1624 36.6651 35.99 30.7314 35.99 23.4349C35.99 16.1385 30.1624 10.2048 22.9965 10.2048C15.8306 10.2048 10.003 16.1385 10.003 23.4349C10.003 30.7314 15.8306 36.6651 22.9965 36.6651ZM22.9965 12.3341C29.0053 12.3341 33.8988 17.3167 33.8988 23.4349C33.8988 29.5532 29.0053 34.5358 22.9965 34.5358C16.9877 34.5358 12.0943 29.5532 12.0943 23.4349C12.0943 17.3167 16.9877 12.3341 22.9965 12.3341ZM17.2875 26.6786C16.911 26.2314 16.9598 25.5571 17.399 25.1739C17.8382 24.7906 18.5004 24.8403 18.8768 25.2874L19.9294 26.5295L27.1302 18.0123C27.5066 17.5651 28.1688 17.5154 28.608 17.8987C29.0471 18.282 29.0959 18.9563 28.7195 19.4034L20.731 28.8576C20.5289 29.0918 20.2431 29.2267 19.9364 29.2267C19.6296 29.2267 19.3438 29.0918 19.1417 28.8576L17.3014 26.6786H17.2875Z" fill="white"/>
</svg>
