<svg width="82" height="79" viewBox="0 0 82 79" fill="none" xmlns="http://www.w3.org/2000/svg">
<path d="M49.1803 48.2118C49.3738 48.2026 49.5703 48.2088 49.7637 48.2272C51.0688 48.3654 52.1742 49.1668 52.7146 50.3613L56.5499 58.8363C56.6451 59.0481 56.8477 59.1863 57.0749 59.2047L68.7986 60.0799C69.0689 60.1014 69.3145 59.9478 69.422 59.7022L77.986 40.004C78.0228 39.9181 78.0413 39.8198 78.0351 39.7215L77.5715 30.4329C77.5622 30.2763 77.4978 30.1289 77.3872 30.0183L65.8232 18.485C65.4639 18.1257 65.1845 17.7051 65.0003 17.2322L60.6584 6.19323C60.5079 5.81554 60.2009 5.77869 60.0197 5.79712C59.8447 5.81247 59.5407 5.89845 59.4578 6.29456L58.3155 11.7142C58.0698 12.8811 57.2653 13.8606 56.1691 14.3304C55.0729 14.8002 53.8109 14.705 52.7945 14.0786L45.1578 9.35599C43.4782 8.31811 42.9224 6.08576 43.9234 4.38462C44.1015 4.07756 43.9817 3.82269 43.8896 3.69987C43.8006 3.57704 43.601 3.37745 43.2509 3.45115L35.5897 5.0663C35.3563 5.11544 35.1721 5.29046 35.1107 5.52383L34.3829 8.33346C34.1158 9.3652 33.4126 10.2311 32.4576 10.704C31.4996 11.1769 30.388 11.2076 29.4054 10.793L26.8752 9.72139C26.6111 9.61085 26.301 9.69069 26.129 9.92098L16.2539 22.8975C15.9867 23.2506 15.6582 23.5515 15.2836 23.7849L3.71953 31.0255C3.48309 31.1729 3.37254 31.4523 3.44624 31.7225L9.5476 54.1904C9.61515 54.433 9.81782 54.6111 10.0665 54.6479L14.175 55.2344C14.3194 55.2559 14.4668 55.2252 14.5896 55.1484L31.1219 45.0829C32.3164 44.3551 33.7964 44.3643 34.9817 45.1105L44.6143 51.1627C44.8906 51.3378 45.2591 51.2671 45.4556 51.0061L46.426 49.698C47.0892 48.8014 48.0903 48.2733 49.1742 48.2211V48.2118H49.1803ZM69.0351 63.1137C68.8846 63.1198 68.7311 63.1198 68.5776 63.1075L56.8539 62.2324C55.5151 62.1311 54.3421 61.3112 53.7863 60.0891L49.9511 51.6141C49.8221 51.3285 49.5764 51.261 49.4475 51.2456C49.3154 51.2303 49.0606 51.2456 48.8763 51.4974L47.906 52.8055C46.7729 54.3347 44.6204 54.74 43.0083 53.7267L33.3758 47.6745C33.1731 47.5486 32.9182 47.5455 32.7125 47.6714L16.1802 57.737C15.4555 58.1761 14.5957 58.3542 13.7574 58.2344L9.64586 57.6479C8.19345 57.4391 7.00818 56.392 6.62435 54.9795L0.522992 32.5117C0.0992443 30.9426 0.737937 29.3059 2.11665 28.44L13.6807 21.1994C13.7452 21.1595 13.8004 21.1073 13.8465 21.049L23.7217 8.07246C24.738 6.73673 26.5282 6.26385 28.0728 6.9179L30.603 7.98955C30.8333 8.08781 31.0298 8.02333 31.128 7.9742C31.2263 7.92814 31.3983 7.81146 31.4566 7.56888L32.1843 4.75924C32.5375 3.40202 33.6061 2.3795 34.9786 2.09086L42.6399 0.475698C44.0831 0.171705 45.5109 0.724421 46.3707 1.9189C47.2305 3.11338 47.3042 4.64563 46.558 5.91687C46.3861 6.20858 46.4812 6.59241 46.7699 6.77051L54.4066 11.4932C54.6491 11.6436 54.8733 11.5853 54.9838 11.5361C55.0974 11.487 55.294 11.3642 55.3523 11.0878L56.4946 5.66815C56.8324 4.06835 58.1527 2.90457 59.7771 2.76947C61.3984 2.62515 62.8969 3.56169 63.4956 5.08166L67.8375 16.1175C67.8682 16.1974 67.9174 16.2711 67.9788 16.3325L79.5428 27.8658C80.1907 28.5106 80.5684 29.3704 80.6145 30.2793L81.0781 39.568C81.1058 40.1299 81.0044 40.698 80.7803 41.2139L72.2163 60.9089C71.6574 62.1955 70.4107 63.04 69.0351 63.1075V63.1137Z" fill="white" stroke="#0050B6" stroke-width="0.786349" stroke-miterlimit="10"/>
<path d="M63.6126 69.2618C62.065 69.3385 60.8675 70.662 60.9442 72.2096C61.021 73.7572 62.3445 74.9547 63.8921 74.878C65.4397 74.8012 66.6372 73.4778 66.5604 71.9301C66.4837 70.3825 65.1602 69.185 63.6126 69.2618ZM64.0456 77.9087C60.8276 78.0684 58.0732 75.5781 57.9135 72.36C57.7539 69.142 60.2411 66.3877 63.4622 66.228C66.6833 66.0683 69.4346 68.5555 69.5942 71.7766C69.7539 74.9977 67.2636 77.749 64.0456 77.9087Z" fill="white" stroke="#0050B6" stroke-width="0.786349" stroke-miterlimit="10"/>
</svg>
