<?xml version="1.0" encoding="UTF-8"?>
<svg width="16px" height="16px" viewBox="0 0 16 16" version="1.1" xmlns="http://www.w3.org/2000/svg" xmlns:xlink="http://www.w3.org/1999/xlink">
    <title>alert-circle</title>
    <g id="页面-1" stroke="none" stroke-width="1" fill="none" fill-rule="evenodd">
        <g id="alert-circle" fill="#0086FF" fill-rule="nonzero">
            <path d="M8,0 C12.4183,0 16,3.58172 16,8 C16,12.4183 12.4183,16 8,16 C3.58172,16 0,12.4183 0,8 C0,3.58172 3.58172,0 8,0 Z M8,10.5 C7.44772,10.5 7,10.9477 7,11.5 C7,12.0523 7.44772,12.5 8,12.5 C8.55228,12.5 9,12.0523 9,11.5 C9,10.9477 8.55228,10.5 8,10.5 Z M8,4 C7.58579,4 7.25,4.33579 7.25,4.75 L7.25,8.25 C7.25,8.66421 7.58579,9 8,9 C8.41421,9 8.75,8.66421 8.75,8.25 L8.75,4.75 C8.75,4.33579 8.41421,4 8,4 Z" id="形状"></path>
        </g>
    </g>
</svg>