<?xml version="1.0" encoding="UTF-8"?>
<svg width="20px" height="20px" viewBox="-3.5 -3 20 20" version="1.1" xmlns="http://www.w3.org/2000/svg" xmlns:xlink="http://www.w3.org/1999/xlink">
    <title>arrow-narrow-down</title>
    <g id="页面-1" stroke="none" stroke-width="1" fill="none" fill-rule="evenodd">
        <g id="arrow-narrow-down" transform="translate(1.6463, 1.1667)" fill="#232527" fill-rule="nonzero">
            <path d="M5,-0.835 C5.46115777,-0.835 5.835,-0.461157766 5.835,-1.33226763e-15 L5.835,9.65 L9.40956584,6.07627584 C9.70847964,5.77736204 10.1776379,5.75245255 10.5049258,6.00154739 L10.5904342,6.07627584 C10.9165219,6.40236362 10.9165219,6.93105638 10.5904342,7.25714416 L5.59043416,12.2571442 L5.57,12.274 L5.55455674,12.290975 L5.517,12.319 L5.50492578,12.3318726 L5.498,12.335 L5.47705346,12.3521058 L5.439,12.375 L5.41238249,12.3930141 L5.395,12.401 L5.369,12.413 L5.3142113,12.4405685 L5.306,12.443 C5.23939207,12.4697025 5.1733605,12.4866167 5.10474063,12.4952042 L5,12.50171 C4.89357898,12.50171 4.79180789,12.4818012 4.69820802,12.445505 L4.63,12.413 L4.60746229,12.4038767 L4.58761751,12.3930141 L4.56,12.375 L4.52294654,12.3521058 L4.501,12.335 L4.482,12.319 L4.44544326,12.290975 L4.429,12.274 L4.40956584,12.2571442 L-0.590434162,7.25714416 C-0.916521946,6.93105638 -0.916521946,6.40236362 -0.590434162,6.07627584 C-0.264346379,5.75018805 0.264346379,5.75018805 0.590434162,6.07627584 L4.165,9.651 L4.165,-1.33226763e-15 C4.165,-0.425684092 4.48354013,-0.77696915 4.89525937,-0.828494165 L5,-0.835 Z" id="形状"></path>
        </g>
    </g>
</svg>