<?xml version="1.0" encoding="UTF-8"?>
<svg width="20px" height="20px" viewBox="-3 -3 20 20" version="1.1" xmlns="http://www.w3.org/2000/svg" xmlns:xlink="http://www.w3.org/1999/xlink">
    <title>arrow-right-solid</title>
    <g id="页面-1" stroke="none" stroke-width="1" fill="none" fill-rule="evenodd">
        <g id="arrow-right-solid" transform="translate(1, 1)" fill="#717680" fill-rule="nonzero">
            <path d="M5.24407469,-0.589258345 C5.56951308,-0.914695069 6.09715162,-0.914693712 6.42258834,-0.589255314 L12.2558843,5.24407065 L12.263,5.252 L12.2896502,5.27987906 L12.313,5.31 L12.3304641,5.32940821 L12.341,5.345 L12.3506592,5.35722779 L12.37,5.39 L12.391484,5.42176669 L12.396,5.431 L12.4023267,5.44157501 L12.424,5.489 L12.4389441,5.51974193 L12.44,5.526 C12.4680213,5.59441529 12.4849018,5.66031518 12.4934721,5.72879823 L12.499965,5.83333 C12.499965,5.97494176 12.4646422,6.10830344 12.4023267,6.22508499 L12.394,6.239 L12.377,6.265 L12.3506592,6.30943221 L12.341,6.321 L12.3304684,6.3372461 L12.309,6.361 L12.2896502,6.38678094 L12.268,6.408 L12.2558894,6.4225843 L6.42258935,12.2559343 C6.09715319,12.5813733 5.56951465,12.5813755 5.2440757,12.2559394 C4.91863674,11.9305032 4.91863448,11.4028647 5.24407065,11.0774257 L9.655,6.666 L1.11022302e-15,6.666665 C-0.424835273,6.666665 -0.775419864,6.34876004 -0.826842137,5.93786177 L-0.833335,5.83333 C-0.833335,5.37309179 -0.460238212,4.999995 1.11022302e-15,4.999995 L9.654,4.999 L5.24407166,0.589255314 C4.94575466,0.290936783 4.92089605,-0.177286032 5.16949503,-0.503920655 L5.24407469,-0.589258345 Z" id="形状"></path>
        </g>
    </g>
</svg>