<?xml version="1.0" encoding="UTF-8"?>
<svg width="24px" height="24px" viewBox="-5.5 -6 24 24" version="1.1" xmlns="http://www.w3.org/2000/svg" xmlns:xlink="http://www.w3.org/1999/xlink">
    <title>arrow-up-right</title>
    <g id="页面-1" stroke="none" stroke-width="1" fill="none" fill-rule="evenodd">
        <g id="arrow-up-right" transform="translate(1.2799, 1)" fill="#FFFFFF" fill-rule="nonzero">
            <path d="M10,-1 L10.033,-0.998 L10.0590314,-0.998266904 L10.085,-0.995 L10.1166211,-0.993272269 L10.148,-0.987 L10.1764315,-0.984402136 L10.2,-0.978 L10.2292908,-0.973589287 L10.265,-0.962 L10.2918437,-0.956672601 L10.311,-0.949 L10.3372588,-0.941701374 L10.37,-0.927 L10.4039426,-0.915078298 L10.422,-0.905 L10.4397747,-0.898358848 L10.483,-0.874 L10.5114029,-0.859619226 L10.52,-0.853 L10.5360882,-0.844312028 L10.594,-0.802 L10.6128994,-0.790295388 L10.616,-0.786 L10.625449,-0.780311233 C10.6825386,-0.734492782 10.7344928,-0.68253856 10.7803112,-0.625448991 L10.786,-0.616 L10.802,-0.594 L10.844312,-0.536088182 L10.853,-0.52 L10.8596192,-0.511402945 L10.874,-0.483 L10.8983588,-0.439774672 L10.905,-0.422 L10.9150783,-0.403942588 L10.927,-0.37 L10.9417014,-0.33725878 L10.949,-0.311 L10.9566726,-0.291843675 L10.962,-0.265 L10.9735893,-0.229290825 L10.978,-0.2 L10.9844021,-0.176431507 L10.987,-0.148 L10.9932723,-0.116621125 L10.995,-0.085 L10.9982669,-0.0590313859 L10.998,-0.033 L11,0 L11,10 C11,10.5522847 10.5522847,11 10,11 C9.44771525,11 9,10.5522847 9,10 L9,2.414 L0.707106781,10.7071068 C0.34662282,11.0675907 -0.220608236,11.0953203 -0.612899443,10.7902954 L-0.707106781,10.7071068 C-1.09763107,10.3165825 -1.09763107,9.68341751 -0.707106781,9.29289322 L7.585,1 L0,1 C-0.512835839,1 -0.935507161,0.61395981 -0.993272269,0.116621125 L-1,0 C-1,-0.55228475 -0.55228475,-1 0,-1 L10,-1 Z" id="形状"></path>
        </g>
    </g>
</svg>