<?xml version="1.0" encoding="UTF-8"?>
<svg width="20px" height="20px" viewBox="-3 -3 20 20" version="1.1" xmlns="http://www.w3.org/2000/svg" xmlns:xlink="http://www.w3.org/1999/xlink">
    <title>arrow-left</title>
    <g id="页面-1" stroke="none" stroke-width="1" fill="none" fill-rule="evenodd">
        <g id="arrow-left" transform="translate(1.0867, 1.1667)" fill="#535862" fill-rule="nonzero">
            <path d="M5.24289584,-0.590434162 C5.56898362,-0.916521946 6.09767638,-0.916521946 6.42376416,-0.590434162 C6.74985195,-0.264346379 6.74985195,0.264346379 6.42376416,0.590434162 L2.015,4.998 L11.66663,4.99833 C12.0923141,4.99833 12.4435992,5.31687013 12.4951242,5.72858937 L12.50163,5.83333 C12.50163,6.29448777 12.1277878,6.66833 11.66663,6.66833 L2.016,6.668 L6.42376264,11.0761943 C6.72267721,11.3751074 6.7475879,11.8442655 6.49849391,12.1715541 L6.42376568,12.2570626 C6.09767874,12.5831513 5.56898598,12.5831526 5.24289736,12.2570657 L-0.590432644,6.42376568 L-0.605,6.406 L-0.62426503,6.38788674 L-0.644,6.362 L-0.665161314,6.33825749 L-0.676,6.322 L-0.68539584,6.31038346 L-0.708,6.273 L-0.726303012,6.24571436 L-0.73,6.236 L-0.737166661,6.22586771 C-0.783996655,6.13810655 -0.815612911,6.04100044 -0.828494165,5.93807063 L-0.835,5.83333 C-0.835,5.6914353 -0.799606652,5.55780716 -0.737166661,5.44079229 L-0.731,5.43 L-0.726304072,5.42094751 L-0.705,5.389 L-0.68539584,5.35627654 L-0.676,5.344 L-0.665162613,5.32840422 L-0.647,5.307 L-0.62426503,5.27877326 L-0.605,5.26 L-0.590434162,5.24289584 L5.24289584,-0.590434162 Z" id="形状"></path>
        </g>
    </g>
</svg>