<?xml version="1.0" encoding="UTF-8"?>
<svg width="20px" height="20px" viewBox="-3 -3 20 20" version="1.1" xmlns="http://www.w3.org/2000/svg" xmlns:xlink="http://www.w3.org/1999/xlink">
    <title>arrow-left-solid</title>
    <g id="页面-1" stroke="none" stroke-width="1" fill="none" fill-rule="evenodd">
        <g id="arrow-left-solid" transform="translate(1, 1)" fill="#717680" fill-rule="nonzero">
            <path d="M5.24407317,-0.58925683 C5.56951073,-0.91469439 6.09714927,-0.91469439 6.42258683,-0.58925683 C6.74802439,-0.263819269 6.74802439,0.263819269 6.42258683,0.58925683 L2.012,4.999 L11.66663,4.999995 C12.0914653,4.999995 12.4420499,5.31789996 12.4934721,5.72879823 L12.499965,5.83333 C12.499965,6.29356821 12.1268682,6.666665 11.66663,6.666665 L2.011,6.666 L6.42258784,11.0774242 C6.72090509,11.3757425 6.7457641,11.8439653 6.49716541,12.1706001 L6.42258582,12.2559378 C6.0971477,12.5813748 5.56950916,12.5813739 5.24407216,12.2559358 L-0.58925784,6.42258582 L-0.602,6.407 L-0.623020238,6.38678094 L-0.65,6.352 L-0.663837134,6.33724781 L-0.669,6.328 L-0.684029152,6.30943221 L-0.717,6.255 L-0.724856519,6.24488896 L-0.726,6.239 L-0.735696742,6.22508499 L-0.763,6.165 L-0.772315995,6.14691343 L-0.792,6.086 L-0.806215566,6.04472541 C-0.842375057,5.90629046 -0.842374807,5.76036665 -0.806214841,5.62193182 L-0.787,5.564 L-0.777242065,5.53213979 L-0.775,5.527 L-0.755,5.484 L-0.735696742,5.44157501 L-0.729,5.431 L-0.724855108,5.42176856 L-0.71,5.401 L-0.684029152,5.35722779 L-0.668,5.337 L-0.654,5.319 L-0.623020238,5.27987906 L-0.598,5.254 L-0.589255819,5.24407216 L5.24407317,-0.58925683 Z" id="形状"></path>
        </g>
    </g>
</svg>