<?xml version="1.0" encoding="UTF-8"?>
<svg width="20px" height="20px" viewBox="-3 -3 20 20" version="1.1" xmlns="http://www.w3.org/2000/svg" xmlns:xlink="http://www.w3.org/1999/xlink">
    <title>arrow-right</title>
    <g id="页面-1" stroke="none" stroke-width="1" fill="none" fill-rule="evenodd">
        <g id="arrow-right" transform="translate(1.2978, 1.1667)" fill="#535862" fill-rule="nonzero">
            <path d="M5.24289736,-0.590435681 C5.56898598,-0.916522626 6.09767874,-0.916521266 6.42376568,-0.590432644 L12.2570642,5.24289584 L12.276,5.264 L12.290895,5.27877326 L12.315,5.309 L12.3317926,5.32840422 L12.337,5.338 L12.3520258,5.35627654 L12.378,5.4 L12.3929341,5.42094751 L12.4037967,5.44079229 L12.429,5.496 L12.4404885,5.5191187 L12.441,5.523 C12.4696225,5.59393793 12.4865367,5.6599695 12.4951242,5.72858937 L12.50163,5.83333 C12.50163,5.93975102 12.4817212,6.04152211 12.445425,6.13512198 L12.442,6.142 L12.427,6.173 L12.4037967,6.22586771 L12.396,6.236 L12.38,6.263 L12.3520258,6.31038346 L12.338,6.328 L12.3317926,6.33825578 L12.31,6.362 L12.290895,6.38788674 L12.276,6.401 L12.2570642,6.42376416 L6.42376416,12.2570642 C6.09767638,12.5831519 5.56898362,12.5831519 5.24289584,12.2570642 C4.91680805,11.9309764 4.91680805,11.4022836 5.24289584,11.0761958 L9.65,6.668 L1.11022302e-15,6.66833 C-0.425684092,6.66833 -0.77696915,6.34978987 -0.828494165,5.93807063 L-0.835,5.83333 C-0.835,5.37217223 -0.461157766,4.99833 1.11022302e-15,4.99833 L9.651,4.998 L5.24289432,0.590432644 C4.94398129,0.291518074 4.91907301,-0.177640249 5.16816869,-0.504927486 L5.24289736,-0.590435681 Z" id="形状"></path>
        </g>
    </g>
</svg>