<?xml version="1.0" encoding="UTF-8"?>
<svg width="16px" height="16px" viewBox="0 0 16 16" version="1.1" xmlns="http://www.w3.org/2000/svg" xmlns:xlink="http://www.w3.org/1999/xlink">
    <title>形状结合</title>
    <g id="页面-1" stroke="none" stroke-width="1" fill="none" fill-rule="evenodd">
        <g id="check-circle" transform="translate(0, 0)" fill="#1D4ED8">
            <path d="M8,0 C12.4183,0 16,3.58172 16,8 C16,12.4183 12.4183,16 8,16 C3.58172,16 0,12.4183 0,8 C0,3.58172 3.58172,0 8,0 Z M10.7197,5.21967 L6.75,9.18934 L5.28033,7.71967 C4.98744,7.42678 4.51256,7.42678 4.21967,7.71967 C3.92678,8.01256 3.92678,8.48744 4.21967,8.78033 L6.21967,10.7803 C6.51256,11.0732 6.98744,11.0732 7.28033,10.7803 L11.7803,6.28033 C12.0732,5.98744 12.0732,5.51256 11.7803,5.21967 C11.4874,4.92678 11.0126,4.92678 10.7197,5.21967 Z" id="形状结合"></path>
        </g>
    </g>
</svg>