<?xml version="1.0" encoding="UTF-8"?>
<svg width="24px" height="24px" viewBox="-1 -1 24 24" version="1.1" xmlns="http://www.w3.org/2000/svg" xmlns:xlink="http://www.w3.org/1999/xlink">
    <title>形状</title>
    <g id="页面-1" stroke="none" stroke-width="1" fill="none" fill-rule="evenodd">
        <g id="check-circle-skinny" transform="translate(0.6667, 0.6667)" fill="#1D4ED8" fill-rule="nonzero">
            <path d="M10.000033,-0.666665 C15.8910431,-0.666665 20.666698,4.10898528 20.666698,10.000033 C20.666698,15.8910219 15.8910219,20.666698 10.000033,20.666698 C4.10898528,20.666698 -0.666665,15.8910431 -0.666665,10.000033 C-0.666665,4.10896409 4.10896409,-0.666665 10.000033,-0.666665 Z M10.000033,0.666665 C4.84534191,0.666665 0.666665,4.84534191 0.666665,10.000033 C0.666665,15.1546656 4.84536339,19.333368 10.000033,19.333368 C15.1546441,19.333368 19.333368,15.1546441 19.333368,10.000033 C19.333368,4.84536339 15.1546656,0.666665 10.000033,0.666665 Z M14.0286297,6.52859966 C14.2889785,6.26825078 14.7110875,6.26825078 14.9714363,6.52859966 C15.2317852,6.78894853 15.2317852,7.21105747 14.9714363,7.47140634 L8.97140634,13.4714363 C8.71105747,13.7317852 8.28894853,13.7317852 8.02859966,13.4714363 L5.02859966,10.4714363 C4.76825078,10.2110875 4.76825078,9.78897853 5.02859966,9.52862966 C5.28894853,9.26828078 5.71105747,9.26828078 5.97140634,9.52862966 L8.5,12.057 L14.0286297,6.52859966 Z" id="形状"></path>
        </g>
    </g>
</svg>