<?xml version="1.0" encoding="UTF-8"?>
<svg width="20px" height="20px" viewBox="-0.5 -0.5 20 20" version="1.1" xmlns="http://www.w3.org/2000/svg" xmlns:xlink="http://www.w3.org/1999/xlink">
    <title>copy-link</title>
    <g id="页面-1" stroke="none" stroke-width="1" fill="none" fill-rule="evenodd">
        <g id="copy-link" transform="translate(0.8623, 0.75)" fill="#262525" fill-rule="nonzero">
            <path d="M14.2223036,5.08363231 C15.3548216,5.08707035 15.6577601,5.12287773 16.0971966,5.34673654 C16.5518901,5.57841851 16.9215284,5.94810565 17.1532205,6.40279068 C17.3911362,6.86961345 17.416699,7.18241069 17.416699,8.499999 L17.4163956,14.2223078 C17.4129567,15.3548472 17.3771411,15.6577963 17.1532428,16.0972136 C16.9215408,16.551918 16.551918,16.9215408 16.0971967,17.1532514 C15.6303327,17.3911347 15.3175117,17.416699 13.999999,17.416699 L8.27767791,17.4163956 C7.14507821,17.4129569 6.84215586,17.3771425 6.40283444,17.1532428 C5.94810565,16.9215284 5.57841851,16.5518901 5.34670623,16.0971372 C5.10888655,15.6302953 5.083329,15.3174875 5.083329,13.999999 L5.0836323,8.27768206 C5.08707018,7.14510383 5.12287633,6.84219211 5.34673654,6.40285136 C5.57843091,5.94813356 5.94813356,5.57843091 6.40285019,5.34673713 C6.86965091,5.10888507 7.18243487,5.083329 8.499999,5.083329 L14.2223036,5.08363231 Z M14.1930986,6.58360573 L8.30690401,6.58360574 C7.45198764,6.58624439 7.23048306,6.60852484 7.08384664,6.68324146 C6.91136444,6.77112709 6.77112709,6.91136444 6.68324087,7.08384781 C6.60318793,7.24095709 6.583329,7.48401313 6.583329,8.499999 L6.58360572,14.1930986 C6.5862442,15.0480344 6.60852345,15.2695293 6.68324146,15.4162014 C6.77110179,15.5886339 6.91131833,15.7288319 7.08390732,15.8167775 C7.24099455,15.8968368 7.48403731,15.916699 8.499999,15.916699 L14.1930939,15.9164222 C15.0480086,15.9137832 15.2694932,15.8914994 15.4161844,15.8167552 C15.58868,15.7288572 15.7288572,15.58868 15.8167466,15.4162013 C15.8968383,15.2590153 15.916699,15.0159863 15.916699,13.999999 L15.9164222,8.30690869 C15.9137831,7.45201344 15.891498,7.23051915 15.8167552,7.08386356 C15.7288319,6.91131833 15.5886339,6.77110179 15.4162608,6.68327177 C15.2590527,6.60318645 15.0160105,6.583329 13.999999,6.583329 L14.1930986,6.58360573 Z M8.333329,-0.75 C9.42973846,-0.75 9.69029762,-0.732222559 10.091506,-0.56604394 C10.6836409,-0.320779194 11.1540466,0.149642277 11.3994642,0.74198059 C11.565533,1.14312579 11.583299,1.40365001 11.583299,2.5 C11.583299,2.91421356 11.2475126,3.25 10.833299,3.25 C10.4190854,3.25 10.083299,2.91421356 10.083299,2.5 C10.083299,1.65492799 10.0693652,1.45060026 10.0136154,1.31593452 C9.92052367,1.09124887 9.74209028,0.91280951 9.51749727,0.81978214 C9.40193692,0.771917595 9.23531761,0.754838045 8.65792296,0.750935001 L2.47357354,0.750276732 C1.61865505,0.752915339 1.39714933,0.775195383 1.2505131,0.849910269 C1.0780237,0.937798406 0.937798406,1.0780237 0.849910903,1.25051186 C0.769858606,1.40762335 0.75,1.65068072 0.75,2.666669 L0.750934994,8.65792294 C0.754838,9.2353175 0.771917281,9.40193616 0.81977994,9.51749196 C0.91280951,9.74209028 1.09124887,9.92052367 1.31573741,10.0135338 C1.45060026,10.0693652 1.65492799,10.083299 2.5,10.083299 C2.91421356,10.083299 3.25,10.4190854 3.25,10.833299 C3.25,11.2475126 2.91421356,11.583299 2.5,11.583299 C1.40365001,11.583299 1.14312579,11.565533 0.741783481,11.3993826 C0.149642277,11.1540466 -0.320779194,10.6836409 -0.56604614,10.0915007 C-0.732222559,9.69029762 -0.75,9.42973846 -0.75,8.333329 L-0.75,2.666669 C-0.75,1.34910728 -0.724444606,1.03632465 -0.486598269,0.569524901 C-0.254900406,0.1147943 0.1147943,-0.254900406 0.569526145,-0.486598903 C1.03632465,-0.724444606 1.34910728,-0.75 2.666669,-0.75 L8.333329,-0.75 Z" id="形状"></path>
        </g>
    </g>
</svg>