<?xml version="1.0" encoding="UTF-8"?>
<svg width="20px" height="20px" viewBox="-1 -4 20 20" version="1.1" xmlns="http://www.w3.org/2000/svg" xmlns:xlink="http://www.w3.org/1999/xlink">
    <title>filter-lines</title>
    <g id="页面-1" stroke="none" stroke-width="1" fill="none" fill-rule="evenodd">
        <g id="filter-lines" transform="translate(1.7641, 1)" fill="#A4A7AE" fill-rule="nonzero">
            <path d="M10,9.165 C10.4611578,9.165 10.835,9.53884223 10.835,10 C10.835,10.4611578 10.4611578,10.835 10,10.835 L5,10.835 C4.53884223,10.835 4.165,10.4611578 4.165,10 C4.165,9.53884223 4.53884223,9.165 5,9.165 L10,9.165 Z M12.5,4.165 C12.9611578,4.165 13.335,4.53884223 13.335,5 C13.335,5.46115777 12.9611578,5.835 12.5,5.835 L2.5,5.835 C2.03884223,5.835 1.665,5.46115777 1.665,5 C1.665,4.53884223 2.03884223,4.165 2.5,4.165 L12.5,4.165 Z M15,-0.835 C15.4611578,-0.835 15.835,-0.461157766 15.835,0 C15.835,0.461157766 15.4611578,0.835 15,0.835 L0,0.835 C-0.461157766,0.835 -0.835,0.461157766 -0.835,0 C-0.835,-0.461157766 -0.461157766,-0.835 0,-0.835 L15,-0.835 Z" id="形状"></path>
        </g>
    </g>
</svg>