<?xml version="1.0" encoding="UTF-8"?>
<svg width="15px" height="15px" viewBox="0 0 15 15" version="1.1" xmlns="http://www.w3.org/2000/svg" xmlns:xlink="http://www.w3.org/1999/xlink">
    <title>link</title>
    <g id="页面-1" stroke="none" stroke-width="1" fill="none" fill-rule="evenodd">
        <g id="link" transform="translate(1, 1)" fill="#8B9298" fill-rule="nonzero">
            <path d="M1.38878773,5.1600296 C1.6816825,4.86713794 2.15655623,4.86714045 2.4494479,5.16003523 C2.74233956,5.45293 2.74233705,5.92780373 2.44944227,6.2206954 L1.50663712,7.16349055 C0.497789323,8.1723461 0.497789323,9.80803765 1.50664527,10.8168626 C2.51549972,11.8257558 4.15116028,11.8257558 5.16002773,10.8168496 L6.10283773,9.8740496 C6.3957325,9.58115794 6.87060623,9.58116045 7.1634979,9.87405523 C7.45638956,10.16695 7.45638705,10.6418237 7.16349227,10.9347154 L6.22069527,11.8775024 C4.62604972,13.4722092 2.04061028,13.4722092 0.445983062,11.8775207 C-1.14865932,10.2829273 -1.14865932,7.6974789 0.445977727,6.1028296 L1.38878773,5.1600296 Z M7.96472264,3.29808469 C8.2576146,3.00519021 8.73248834,3.00518818 9.02538281,3.29808014 C9.31827729,3.5909721 9.31827932,4.06584584 9.02538736,4.35874031 L4.35875736,9.02541031 C4.0658654,9.31830479 3.59099166,9.31830682 3.29809719,9.02541486 C3.00520271,8.7325229 3.00520068,8.25764916 3.29809264,7.96475469 L7.96472264,3.29808469 Z M6.10283491,0.445982414 C7.69747644,-1.14865911 10.2828823,-1.14865911 11.8775953,0.445992599 C13.4721752,2.04063383 13.4721752,4.62604342 11.8775598,6.2207079 L10.9346598,7.1635179 C10.6417526,7.45639714 10.1668788,7.45637447 9.8739996,7.16346727 C9.58112036,6.87056008 9.58114303,6.39568634 9.87405023,6.1028071 L10.8169168,5.16003056 C11.8257348,4.15118158 11.8257348,2.51549117 10.8169351,1.50665277 C9.80802769,0.497784107 8.17235356,0.497784107 7.16349509,1.50664259 L6.22068509,2.44945259 C5.92779187,2.7423458 5.45291813,2.7423458 5.16002491,2.44945259 C4.8671317,2.15655937 4.8671317,1.68168563 5.16002491,1.38879241 L6.10283491,0.445982414 Z" id="形状"></path>
        </g>
    </g>
</svg>