<?xml version="1.0" encoding="UTF-8"?>
<svg width="24px" height="24px" viewBox="-1 -1.5 24 24" version="1.1" xmlns="http://www.w3.org/2000/svg" xmlns:xlink="http://www.w3.org/1999/xlink">
    <title>mail</title>
    <g id="页面-1" stroke="none" stroke-width="1" fill="none" fill-rule="evenodd">
        <g id="mail" transform="translate(0.7732, 0.5)" fill="#B3B3B3" fill-rule="nonzero">
            <path d="M9.4287599,-0.433853008 C9.80450878,-0.522048997 10.1955212,-0.522048997 10.5712627,-0.433854747 C10.6207234,-0.421786706 10.6207234,-0.421786706 10.6697548,-0.407997709 C11.0111253,-0.308821544 11.2232702,-0.18659383 12.0164208,0.328985529 L19.240622,5.0246563 L19.32,5.077 L19.5445092,5.22219794 C19.8842858,5.44305272 19.9965256,5.52225935 20.1085507,5.64643991 L20.150994,5.69548026 C20.2789508,5.8486084 20.3750832,6.02571502 20.4337016,6.21633747 C20.493383,6.41028854 20.500015,6.52704866 20.500015,6.98292975 L20.500015,14.3145998 C20.500015,16.5153884 20.4572412,17.0388901 20.1185269,17.703578 C19.7830268,18.3620961 19.2475709,18.8975218 18.5890028,19.2331068 C17.9242057,19.5718239 17.4006792,19.6145997 15.200015,19.6145997 L4.53350923,19.6143587 C2.55540678,19.6105214 2.04807769,19.5577122 1.41104036,19.2331084 C0.752457902,18.8975636 0.217031299,18.3621628 -0.118518342,17.7036047 C-0.457229014,17.0388831 -0.5,16.515384 -0.5,14.3145998 L-0.5,6.98292975 C-0.5,6.52708457 -0.493373431,6.41034024 -0.433743878,6.21642606 C-0.375093647,6.02570031 -0.278979267,5.84859463 -0.151031953,5.69548143 C-0.111204151,5.64781851 -0.0680474704,5.60351117 -0.0200712148,5.56056299 C0.0853582997,5.46618284 0.167507974,5.40940489 0.455520551,5.22219812 L0.679,5.077 L0.759440621,5.02464807 L7.98354062,0.328978074 L8.14489327,0.224374202 C8.80776925,-0.203974434 9.01331975,-0.315926628 9.33032276,-0.408012191 C9.37933219,-0.421793501 9.37933219,-0.421793501 9.4287599,-0.433853008 Z M19.500015,7.033 C19.4252978,7.0840681 19.3402823,7.13980971 19.2406088,7.20460182 L12.0164185,11.9003155 C11.1693016,12.4509683 10.9499009,12.5742298 10.5713361,12.663055 C10.195545,12.7513147 9.80448498,12.7513147 9.42880169,12.6630803 C9.05013154,12.574233 8.83074118,12.450985 7.98353858,11.9003201 L0.759444681,7.20460406 C0.667509071,7.14484712 0.591033047,7.09477285 0.526329579,7.05135584 L0.5,7.033 L0.500986383,14.8027124 C0.507903219,16.3212098 0.554518455,16.7872206 0.743116564,17.1896022 L0.772483938,17.2496058 C1.01216004,17.7200001 1.39459548,18.1024172 1.86502969,18.3421013 C2.32331956,18.5756239 2.80033284,18.6145997 4.799995,18.6145997 L15.4523258,18.6143659 C17.2410962,18.6108427 17.6966062,18.5654702 18.1350048,18.3421041 C18.6054102,18.1024007 18.9878801,17.7199524 19.2275223,17.2495838 C19.4610388,16.7913344 19.500015,16.3143111 19.500015,14.3145998 L19.500015,7.033 Z M10.3427599,0.539688508 C10.1173088,0.486770497 9.88272122,0.486770497 9.65725951,0.539690995 C9.63335694,0.54552152 9.63335694,0.54552152 9.60927944,0.552291495 C9.40393111,0.611942717 9.22091654,0.717379093 8.52852521,1.16742414 L1.30442532,5.86309406 C1.09688445,5.99799291 0.991166197,6.07174635 0.945686547,6.10131145 L0.93,6.11 C0.97246362,6.14540914 1.05154682,6.20045641 1.20392648,6.30052694 L1.30443142,6.3661594 L8.52852334,11.0618741 C9.25891881,11.5366167 9.44063383,11.6386996 9.6573361,11.6895445 C9.88274502,11.7424848 10.117285,11.7424848 10.3427985,11.6895199 C10.5593805,11.6387018 10.7410951,11.5366128 11.4714212,11.0618777 L18.695608,6.3661663 C18.9377377,6.2087714 19.0412626,6.13461892 19.0722017,6.11684336 L19.077,6.114 C19.0456836,6.09718705 18.9658272,6.04051157 18.7910907,5.92552458 L18.6956233,5.86309315 L11.4714233,1.16742315 L11.3204485,1.06954492 C10.7508313,0.701447071 10.5803042,0.607361964 10.3907666,0.552296821 C10.3666794,0.545523382 10.3666794,0.545523382 10.3427599,0.539688508 Z" id="形状"></path>
        </g>
    </g>
</svg>