<?xml version="1.0" encoding="UTF-8"?>
<svg width="20px" height="20px" viewBox="-3 -1 20 20" version="1.1" xmlns="http://www.w3.org/2000/svg" xmlns:xlink="http://www.w3.org/1999/xlink">
    <title>play</title>
    <g id="页面-1" stroke="none" stroke-width="1" fill="none" fill-rule="evenodd">
        <g id="play" transform="translate(0.509, 0.5578)" fill="#FFFFFF">
            <path d="M3.33853206,0.777538807 C3.34849206,0.784178807 3.35849206,0.790838807 3.36851206,0.797528807 L12.1591621,6.65792881 C12.4134621,6.82746881 12.6493621,6.98465881 12.8304621,7.13073881 C13.0194621,7.28317881 13.2422621,7.49457881 13.3705621,7.80382881 C13.5400621,8.21257881 13.5400621,8.67197881 13.3705621,9.08067881 C13.2422621,9.38997881 13.0194621,9.60137881 12.8304621,9.75377881 C12.6493621,9.89987881 12.4134621,10.0570788 12.1591621,10.2265788 L3.33856206,16.1069788 C3.02766206,16.3142788 2.74809206,16.5006788 2.51087206,16.6292788 C2.27348206,16.7578788 1.94764206,16.9048788 1.56733206,16.8821788 C1.08087206,16.8531788 0.631492058,16.6126788 0.337482058,16.2239788 C0.107632058,15.9201788 0.0492020579,15.5674788 0.0245720579,15.2986788 C8.8817842e-16,15.0299788 8.8817842e-16,14.6939788 8.8817842e-16,14.3202788 L8.8817842e-16,2.60029881 C8.8817842e-16,2.58824881 8.8817842e-16,2.57623881 8.8817842e-16,2.56426881 C8.8817842e-16,2.19059881 8.8817842e-16,1.85459881 0.0245720579,1.58591881 C0.0492020579,1.31703881 0.107632058,0.964378807 0.337482058,0.660528807 C0.631492058,0.271878807 1.08087206,0.0313788074 1.56733206,0.00233880741 C1.94764206,-0.0203711926 2.27348206,0.126638807 2.51087206,0.255288807 C2.74808206,0.383848807 3.02764206,0.570238807 3.33853206,0.777538807 Z" id="路径"></path>
        </g>
    </g>
</svg>