<?xml version="1.0" encoding="UTF-8"?>
<svg width="28px" height="28px" viewBox="-3 -3.5 28 28" version="1.1" xmlns="http://www.w3.org/2000/svg" xmlns:xlink="http://www.w3.org/1999/xlink">
    <title>share-facebook</title>
    <g id="页面-1" stroke="none" stroke-width="1" fill="none" fill-rule="evenodd">
        <g id="share-facebook" transform="translate(0.4559, 0)" fill="#98A2B3" fill-rule="nonzero">
            <path d="M20.5714286,10.2857143 C20.5714286,4.60506857 15.9663429,0 10.2857143,0 C4.60506857,0 0,4.60506857 0,10.2857143 C0,15.4195714 3.76131429,19.6748571 8.67857143,20.4464571 L8.67857143,13.2589714 L6.06696,13.2589714 L6.06696,10.2857143 L8.67857143,10.2857143 L8.67857143,8.01964286 C8.67857143,5.44178571 10.2142286,4.01785714 12.5636571,4.01785714 C13.6886571,4.01785714 14.8661143,4.21875429 14.8661143,4.21875429 L14.8661143,6.75 L13.5690857,6.75 C12.2914286,6.75 11.8928571,7.54292571 11.8928571,8.35714286 L11.8928571,10.2857143 L14.7455143,10.2857143 L14.2895143,13.2589714 L11.8928571,13.2589714 L11.8928571,20.4464571 C16.8101143,19.6748571 20.5714286,15.4195714 20.5714286,10.2857143 Z" id="路径"></path>
        </g>
    </g>
</svg>