<?xml version="1.0" encoding="UTF-8"?>
<svg width="28px" height="28px" viewBox="-3 -3.5 28 28" version="1.1" xmlns="http://www.w3.org/2000/svg" xmlns:xlink="http://www.w3.org/1999/xlink">
    <title>share-linkedin</title>
    <g id="页面-1" stroke="none" stroke-width="1" fill="none" fill-rule="evenodd">
        <g id="share-linkedin" transform="translate(0.5718, 0)" fill="#98A2B3" fill-rule="nonzero">
            <path d="M19.0486286,0 L1.51874571,0 C0.679017429,0 0,0.662946857 0,1.48259143 L0,19.0848 C0,19.9044857 0.679017429,20.5714286 1.51874571,20.5714286 L19.0486286,20.5714286 C19.8883714,20.5714286 20.5714286,19.9044857 20.5714286,19.0888286 L20.5714286,1.48259143 C20.5714286,0.662946857 19.8883714,0 19.0486286,0 Z M6.10312286,17.5299429 L3.04955143,17.5299429 L3.04955143,7.71026571 L6.10312286,7.71026571 L6.10312286,17.5299429 Z M4.57633714,6.37232571 C3.59598,6.37232571 2.80446857,5.58080571 2.80446857,4.60446 C2.80446857,3.62812286 3.59598,2.83660286 4.57633714,2.83660286 C5.55268286,2.83660286 6.34419429,3.62812286 6.34419429,4.60446 C6.34419429,5.57678571 5.55268286,6.37232571 4.57633714,6.37232571 Z M17.5299429,17.5299429 L14.4803143,17.5299429 L14.4803143,12.7566857 C14.4803143,11.6196857 14.4602571,10.1531143 12.8933143,10.1531143 C11.3062286,10.1531143 11.0652,11.3946857 11.0652,12.6763714 L11.0652,17.5299429 L8.01964286,17.5299429 L8.01964286,7.71026571 L10.9446,7.71026571 L10.9446,9.0522 L10.9848,9.0522 C11.3906571,8.28080571 12.3870857,7.46518286 13.8696857,7.46518286 C16.9593429,7.46518286 17.5299429,9.49825714 17.5299429,12.1419429 L17.5299429,17.5299429 Z" id="形状"></path>
        </g>
    </g>
</svg>