<?xml version="1.0" encoding="UTF-8"?>
<svg width="24px" height="24px" viewBox="-1.5 -1 24 24" version="1.1" xmlns="http://www.w3.org/2000/svg" xmlns:xlink="http://www.w3.org/1999/xlink">
    <title>shopping-bag</title>
    <g id="页面-1" stroke="none" stroke-width="1" fill="none" fill-rule="evenodd">
        <g id="shopping-bag" transform="translate(1.3086, 1)" fill="#232527" fill-rule="nonzero">
            <path d="M17.5,4 C18.6045695,4 19.5,4.8954305 19.5,6 L19.5,19 C19.5,20.1045695 18.6045695,21 17.5,21 L1.5,21 C0.3954305,21 -0.5,20.1045695 -0.5,19 L-0.5,6 C-0.5,4.8954305 0.3954305,4 1.5,4 L17.5,4 Z M17.5,5 L1.5,5 C0.94771525,5 0.5,5.44771525 0.5,6 L0.5,19 C0.5,19.5522847 0.94771525,20 1.5,20 L17.5,20 C18.0522847,20 18.5,19.5522847 18.5,19 L18.5,6 C18.5,5.44771525 18.0522847,5 17.5,5 Z" id="矩形"></path>
            <path d="M11.5,-0.5 C12.8807332,-0.5 14,0.619278424 14,2 L14,4.5 L13,4.5 L13,2 C13,1.17156085 12.3284461,0.5 11.5,0.5 L7.5,0.5 C6.67157237,0.5 6,1.17157237 6,2 L6,4.5 L5,4.5 L5,2 C5,0.619287625 6.11928763,-0.5 7.5,-0.5 L11.5,-0.5 Z" id="路径"></path>
        </g>
    </g>
</svg>