<?xml version="1.0" encoding="UTF-8"?>
<svg width="27px" height="27px" viewBox="-2 -2 27 27" version="1.1" xmlns="http://www.w3.org/2000/svg" xmlns:xlink="http://www.w3.org/1999/xlink">
    <title>形状</title>
    <g id="页面-1" stroke="none" stroke-width="1" fill="none" fill-rule="evenodd">
        <path d="M11.5,0.250000153 C5.28663,0.250000153 0.25,5.28663015 0.25,11.5000002 C0.25,17.7134002 5.28663,22.7500002 11.5,22.7500002 C17.7134,22.7500002 22.75,17.7134002 22.75,11.5000002 C22.75,5.28663015 17.7134,0.250000153 11.5,0.250000153 Z M16.6593,16.4759002 C16.6112,16.5544002 16.5481,16.6227002 16.4736,16.6769002 C16.3992,16.7311002 16.3147,16.7700002 16.2252,16.7915002 C16.1357,16.8131002 16.0428,16.8167002 15.9518,16.8023002 C15.8609,16.7879002 15.7736,16.7558002 15.6951,16.7076002 C13.0536,15.0944002 9.7281,14.7287002 5.812,15.6231002 C5.63074,15.6644002 5.44049,15.6321002 5.2831,15.5331002 C5.12571,15.4342002 5.01407,15.2768002 4.97275,15.0955002 C4.93143,14.9142002 4.9638,14.7240002 5.06275,14.5666002 C5.1617,14.4092002 5.31912,14.2976002 5.50037,14.2562002 C9.7855,13.2775002 13.4609,13.6982002 16.4264,15.5106002 C16.7571,15.7131002 16.8618,16.1451002 16.6593,16.4759002 Z M18.0362,13.4125002 C17.9146,13.6106002 17.7192,13.7524002 17.4931,13.8066002 C17.2669,13.8608002 17.0286,13.8231002 16.8303,13.7016002 C13.8063,11.8431002 9.196,11.3054002 5.61962,12.3899002 C5.40091,12.4453002 5.16925,12.4144002 4.97275,12.3035002 C4.77625,12.1926002 4.63002,12.0102002 4.56443,11.7944002 C4.49884,11.5785002 4.51892,11.3456002 4.62052,11.1442002 C4.72212,10.9427002 4.89741,10.7881002 5.11,10.7125002 C9.1949,9.47280015 14.2742,10.0735002 17.7471,12.2076002 C17.9453,12.3293002 18.087,12.5247002 18.1412,12.7508002 C18.1954,12.9769002 18.1577,13.2153002 18.0362,13.4136002 L18.0362,13.4125002 Z M18.1544,10.2220002 C14.5285,8.06880015 8.5469,7.87075015 5.08412,8.92150015 C4.9519,8.96160015 4.81307,8.97530015 4.67556,8.96170015 C4.53805,8.94820015 4.40456,8.90770015 4.2827,8.84260015 C4.16084,8.77740015 4.053,8.68890015 3.96534,8.58210015 C3.87768,8.47530015 3.81192,8.35230015 3.77181,8.22010015 C3.7317,8.08780015 3.71803,7.94901015 3.73157,7.81150015 C3.74511,7.67399015 3.78561,7.54049015 3.85074,7.41863015 C3.91588,7.29677015 4.00438,7.18894015 4.11119,7.10128015 C4.218,7.01362015 4.34103,6.94786015 4.47325,6.90775015 C8.4479,5.70175015 15.0539,5.93462015 19.2288,8.41300015 C19.3475,8.48350015 19.4513,8.57680015 19.534,8.68740015 C19.6167,8.79810015 19.6769,8.92390015 19.711,9.05780015 C19.7451,9.19160015 19.7525,9.33090015 19.7328,9.46770015 C19.7131,9.60440015 19.6666,9.73590015 19.5961,9.85470015 C19.5255,9.97350015 19.4323,10.0772002 19.3216,10.1599002 C19.211,10.2427002 19.0852,10.3028002 18.9513,10.3369002 C18.8174,10.3710002 18.6781,10.3784002 18.5414,10.3587002 C18.4047,10.3390002 18.2732,10.2925002 18.1544,10.2220002 Z" id="形状" fill="#FC0000" fill-rule="nonzero"></path>
    </g>
</svg>