<?xml version="1.0" encoding="UTF-8"?>
<svg width="27px" height="27px" viewBox="-2 -2 27 27" version="1.1" xmlns="http://www.w3.org/2000/svg" xmlns:xlink="http://www.w3.org/1999/xlink">
    <title>social-instagram</title>
    <g id="页面-1" stroke="none" stroke-width="1" fill="none" fill-rule="evenodd">
        <g id="social-instagram" transform="translate(0.8531, 0.7)" fill="#FCFCFC">
            <path d="M10.80003,4.4408921e-16 C7.86713,4.4408921e-16 7.49923,0.01238 6.34725,0.06525 C5.1975,0.117 4.41225,0.30038 3.726,0.567 C3.00553,0.83812 2.35286,1.26312 1.8135,1.81238 C1.26387,2.35164 0.83848,3.00431 0.567,3.72488 C0.30038,4.41225 0.117,5.19863 0.06525,6.34725 C0.01125,7.49925 4.4408921e-16,7.86605 4.4408921e-16,10.80005 C4.4408921e-16,13.73285 0.01238,14.10075 0.06525,15.25275 C0.117,16.40255 0.30038,17.18775 0.567,17.87405 C0.83815,18.59445 1.26315,19.24715 1.81238,19.78655 C2.41313,20.38835 3.01613,20.75735 3.72488,21.03305 C4.41225,21.29965 5.1975,21.48305 6.34613,21.53475 C7.49923,21.58765 7.86713,21.60005 10.80003,21.60005 C13.73283,21.60005 14.10073,21.58765 15.25273,21.53475 C16.40253,21.48305 17.18773,21.29965 17.87403,21.03305 C18.59443,20.76185 19.24713,20.33685 19.78653,19.78765 C20.33613,19.24835 20.76153,18.59565 21.03303,17.87515 C21.29963,17.18775 21.48303,16.40135 21.53473,15.25385 C21.58763,14.10075 21.60003,13.73285 21.60003,10.80005 C21.60003,7.86715 21.58763,7.49925 21.53473,6.34725 C21.48183,5.1975 21.29963,4.41225 21.03303,3.726 C20.76183,3.00554 20.33683,2.35288 19.78763,1.8135 C19.24843,1.26384 18.59573,0.83845 17.87513,0.567 C17.18773,0.30038 16.40133,0.117 15.25273,0.06525 C14.10073,0.01125 13.73403,4.4408921e-16 10.80003,4.4408921e-16 Z M10.80003,1.94625 C13.68333,1.94625 14.02533,1.9575 15.16503,2.00925 C16.21683,2.0565 16.78833,2.23313 17.16973,2.3805 C17.67373,2.57625 18.03373,2.81025 18.41173,3.18825 C18.78973,3.56625 19.02373,3.92625 19.21953,4.43025 C19.36683,4.8105 19.54233,5.38313 19.59073,6.43613 C19.64253,7.57465 19.65373,7.91665 19.65373,10.80005 C19.65373,13.68335 19.64253,14.02535 19.59073,15.16505 C19.54233,16.21685 19.36683,16.78955 19.21953,17.16975 C19.04613,17.63905 18.76973,18.06345 18.41063,18.41175 C18.06253,18.77025 17.63853,19.04635 17.16973,19.21955 C16.78833,19.36685 16.21683,19.54355 15.16383,19.59075 C14.02533,19.64255 13.68333,19.65375 10.79883,19.65375 C7.91553,19.65375 7.57463,19.64255 6.43613,19.59075 C5.38313,19.54355 4.8105,19.36685 4.43025,19.21955 C3.96109,19.04645 3.53669,18.77045 3.18825,18.41175 C2.82957,18.06335 2.55355,17.63895 2.3805,17.16975 C2.23313,16.78955 2.0565,16.21685 2.00925,15.16385 C1.95638,14.02535 1.94625,13.68335 1.94625,10.80005 C1.94625,7.91665 1.9575,7.57465 2.00925,6.435 C2.0565,5.38313 2.23313,4.81163 2.3805,4.43025 C2.57625,3.92625 2.81025,3.56625 3.18825,3.18825 C3.53669,2.82957 3.96109,2.55355 4.43025,2.3805 C4.8105,2.23313 5.38313,2.0565 6.43613,2.00925 C7.57463,1.9575 7.91663,1.94625 10.80003,1.94625 Z M10.80003,14.40005 C9.84523,14.40005 8.92953,14.02075 8.25443,13.34555 C7.57933,12.67045 7.2,11.75475 7.2,10.80005 C7.2,9.84525 7.57933,8.92955 8.25443,8.25445 C8.92953,7.57925 9.84523,7.2 10.80003,7.2 C11.75483,7.2 12.67043,7.57925 13.34563,8.25445 C14.02073,8.92955 14.40003,9.84525 14.40003,10.80005 C14.40003,11.75475 14.02073,12.67045 13.34563,13.34555 C12.67043,14.02075 11.75483,14.40005 10.80003,14.40005 Z M10.80003,5.25375 C10.07163,5.25375 9.35043,5.39721 8.67753,5.67593 C8.00463,5.95466 7.39323,6.36319 6.87821,6.87821 C6.36319,7.39325 5.95466,8.00465 5.67593,8.67755 C5.39721,9.35045 5.25375,10.07165 5.25375,10.80005 C5.25375,11.52835 5.39721,12.24955 5.67593,12.92245 C5.95466,13.59535 6.36319,14.20675 6.87821,14.72175 C7.39323,15.23685 8.00463,15.64535 8.67753,15.92405 C9.35043,16.20275 10.07163,16.34625 10.80003,16.34625 C12.27093,16.34625 13.68163,15.76195 14.72183,14.72175 C15.76193,13.68165 16.34623,12.27095 16.34623,10.80005 C16.34623,9.32905 15.76193,7.91835 14.72183,6.87821 C13.68163,5.83809 12.27093,5.25375 10.80003,5.25375 Z M17.86053,5.0355 C17.86053,5.37922 17.72393,5.70886 17.48093,5.95191 C17.23783,6.19496 16.90823,6.3315 16.56453,6.3315 C16.22083,6.3315 15.89113,6.19496 15.64813,5.95191 C15.40503,5.70886 15.26853,5.37922 15.26853,5.0355 C15.26853,4.69178 15.40503,4.36214 15.64813,4.11909 C15.89113,3.87604 16.22083,3.7395 16.56453,3.7395 C16.90823,3.7395 17.23783,3.87604 17.48093,4.11909 C17.72393,4.36214 17.86053,4.69178 17.86053,5.0355 Z" id="形状"></path>
        </g>
    </g>
</svg>