<?xml version="1.0" encoding="UTF-8"?>
<svg width="27px" height="27px" viewBox="-4 -4 27 27" version="1.1" xmlns="http://www.w3.org/2000/svg" xmlns:xlink="http://www.w3.org/1999/xlink">
    <title>social-linkedin</title>
    <g id="页面-1" stroke="none" stroke-width="1" fill="none" fill-rule="evenodd">
        <g id="social-linkedin" transform="translate(0.5512, 0.7023)" fill="#FCFCFC">
            <path d="M4.21819227,2.15809 C4.22468227,1.87706 4.17493227,1.59756 4.07187227,1.33603 C3.96881227,1.0745 3.81451227,0.8362 3.61805227,0.63515 C3.42159227,0.43409 3.18692227,0.27433 2.92783227,0.16526 C2.66875227,0.05619 2.39048227,0 2.10937227,0 C1.82827227,0 1.55000227,0.05619 1.29091227,0.16526 C1.03183227,0.27433 0.797162265,0.43409 0.600702265,0.63515 C0.404232265,0.8362 0.249942265,1.0745 0.146882265,1.33603 C0.0438222653,1.59756 -0.00592773471,1.87706 0.000562265292,2.15809 C-0.00592773471,2.43912 0.0438222653,2.71861 0.146882265,2.98015 C0.249942265,3.24168 0.404232265,3.47997 0.600702265,3.68103 C0.797162265,3.88208 1.03183227,4.04184 1.29091227,4.15091 C1.55000227,4.25999 1.82827227,4.31617 2.10937227,4.31617 C2.39048227,4.31617 2.66875227,4.25999 2.92783227,4.15091 C3.18692227,4.04184 3.42159227,3.88208 3.61805227,3.68103 C3.81451227,3.47997 3.96881227,3.24168 4.07187227,2.98015 C4.17493227,2.71861 4.22468227,2.43912 4.21819227,2.15809 Z M3.92906227,17.59537 L0.289692265,17.59537 L0.289692265,5.87287 L3.92906227,5.87287 L3.92906227,17.59537 Z M9.69808227,5.87287 L6.21168227,5.87287 L6.21168227,17.59537 L9.84318227,17.59537 L9.84318227,11.79707 C9.84318227,10.26707 10.1322823,8.78657 12.0256823,8.78657 C13.8909823,8.78657 13.9156823,10.53487 13.9156823,11.89497 L13.9156823,17.59537 L17.5505823,17.59537 L17.5505823,11.16597 C17.5505823,8.00917 16.8699823,5.58257 13.1889823,5.58257 C11.4192823,5.58257 10.2312823,6.55347 9.74648227,7.47597 L9.69698227,7.47597 L9.69698227,5.87287 L9.69808227,5.87287 Z" id="形状"></path>
        </g>
    </g>
</svg>