<?xml version="1.0" encoding="UTF-8"?>
<svg width="27px" height="27px" viewBox="-7 -2 27 27" version="1.1" xmlns="http://www.w3.org/2000/svg" xmlns:xlink="http://www.w3.org/1999/xlink">
    <title>social-facebook</title>
    <g id="页面-1" stroke="none" stroke-width="1" fill="none" fill-rule="evenodd">
        <g id="social-facebook" transform="translate(0.8244, 0.5593)" fill="#FCFCFC">
            <path d="M3.35583,21.8813982 L3.35583,11.9048982 L8.8817842e-16,11.9048982 L8.8817842e-16,8.01689819 L3.35583,8.01689819 L3.35583,5.15488819 C3.28843,4.47550819 3.37003,3.78958819 3.59503,3.14501819 C3.82013,2.50043819 4.18313,1.91274819 4.65873,1.42297819 C5.13433,0.93319819 5.71113,0.55313819 6.34883,0.30932819 C6.98653,0.0655281898 7.66983,-0.0361518102 8.35083,0.0113881898 C9.35333,0.00547818975 10.35523,0.0595781898 11.35123,0.17338819 L11.35123,3.64288819 L9.29253,3.64288819 C9.03113,3.58744819 8.76003,3.59751819 8.50353,3.67222819 C8.24693,3.74692819 8.01283,3.88392819 7.82203,4.07103819 C7.63123,4.25813819 7.48973,4.48952819 7.41003,4.74458819 C7.33033,4.99964819 7.31503,5.27045819 7.36533,5.53288819 L7.36533,8.01689819 L11.21623,8.01689819 L10.71333,11.9048982 L7.37213,11.9048982 L7.37213,21.8813982 L3.35583,21.8813982 Z" id="路径"></path>
        </g>
    </g>
</svg>