<?xml version="1.0" encoding="UTF-8"?>
<svg width="27px" height="27px" viewBox="-1 -5 27 27" version="1.1" xmlns="http://www.w3.org/2000/svg" xmlns:xlink="http://www.w3.org/1999/xlink">
    <title>形状</title>
    <g id="页面-1" stroke="none" stroke-width="1" fill="none" fill-rule="evenodd">
        <path d="M21.9924,0.645230153 C23.0386,0.919730153 23.861,1.72860015 24.1411,2.75573015 C24.586997,4.3909347 24.6410451,7.58826006 24.6475964,8.3393442 L24.6475964,8.66065521 C24.6410451,9.41173496 24.586997,12.6090395 24.1411,14.2442002 C23.9993,14.7535002 23.7261,15.2165002 23.349,15.5869002 C22.9719,15.9573002 22.5041,16.2221002 21.9924,16.3547002 C20.2994426,16.8000789 14.0508293,16.8474596 12.7404969,16.8525001 L12.2565374,16.8525001 C10.9463856,16.8474596 4.6985683,16.8000789 3.00461,16.3547002 C2.49296,16.2220002 2.02517,15.9572002 1.64806,15.5868002 C1.27096,15.2164002 0.99777,14.7534002 0.85586,14.2442002 C0.426314545,12.6654244 0.361231901,9.63038124 0.351370894,8.74691489 L0.351370894,8.253084 C0.361231901,7.36961232 0.426314545,4.33454834 0.85586,2.75573015 C0.99767,2.24649015 1.27082,1.78348015 1.64794,1.41307015 C2.02506,1.04266015 2.49291,0.777870153 3.00461,0.645230153 C4.65823596,0.210473132 10.6522891,0.154972236 12.1557366,0.147887015 L12.8434132,0.147887015 C14.3466368,0.154972236 20.3397511,0.210473132 21.9924,0.645230153 Z M10.0145,4.97422015 L10.0145,12.0268002 L16.364,8.50000015 L10.0145,4.97422015 Z" id="形状" fill="#FF0000"></path>
    </g>
</svg>