<?xml version="1.0" encoding="UTF-8"?>
<svg width="21px" height="21px" viewBox="0 -0.5 21 21" version="1.1" xmlns="http://www.w3.org/2000/svg" xmlns:xlink="http://www.w3.org/1999/xlink">
    <title>user</title>
    <g id="页面-1" stroke="none" stroke-width="1" fill="none" fill-rule="evenodd">
        <g id="user" transform="translate(1.1811, 0.4762)" fill="#232527" fill-rule="nonzero">
            <path d="M9.52380796,13.3613333 C13.257656,13.3613333 16.7625506,14.9610007 19.3950499,17.7695882 C19.5749013,17.9614699 19.5651489,18.2628193 19.3732671,18.4426708 C19.1813853,18.6225223 18.8800359,18.6127698 18.7001844,18.420888 C16.2433975,15.7997663 12.9874357,14.3137143 9.52380796,14.3137143 C6.06019203,14.3137143 2.80423928,15.7997635 0.347431583,18.4208892 C0.167579425,18.6127704 -0.133769975,18.6225218 -0.32565114,18.4426697 C-0.517532305,18.2628175 -0.527283741,17.9614681 -0.347431583,17.769587 C2.28508788,14.9609974 5.78997215,13.3613333 9.52380796,13.3613333 Z M9.52380762,-0.476190476 C12.4173409,-0.476190476 14.7619029,1.88215332 14.7619029,4.78991429 C14.7619029,7.6976722 12.4173439,10.056 9.52380762,10.056 C6.63025856,10.056 4.28571238,7.69767853 4.28571238,4.78991429 C4.28571238,1.88214699 6.63026159,-0.476190476 9.52380762,-0.476190476 Z M9.52380762,0.476190476 C7.15750124,0.476190476 5.23809333,2.4068864 5.23809333,4.78991429 C5.23809333,7.17293796 7.15749704,9.10361905 9.52380762,9.10361905 C11.890106,9.10361905 13.8095219,7.17293105 13.8095219,4.78991429 C13.8095219,2.40689331 11.8901018,0.476190476 9.52380762,0.476190476 Z" id="形状"></path>
        </g>
    </g>
</svg>